<?xml version="1.0" standalone="no"?>
<!DOCTYPE svg PUBLIC "-//W3C//DTD SVG 20010904//EN"
 "http://www.w3.org/TR/2001/REC-SVG-20010904/DTD/svg10.dtd">
<svg version="1.0" xmlns="http://www.w3.org/2000/svg"
 width="450.000000pt" height="450.000000pt" viewBox="0 0 450.000000 450.000000"
 preserveAspectRatio="xMidYMid meet">
<metadata>
Created by potrace 1.10, written by Peter Selinger 2001-2011
</metadata>
<g transform="translate(0.000000,450.000000) scale(0.100000,-0.100000)"
fill="#000000" stroke="none">
<path d="M2257 4117 c-22 -16 -37 -149 -37 -328 0 -122 -2 -140 -23 -179 -24
-46 -49 -65 -40 -31 3 11 -3 27 -16 40 -22 22 -68 88 -90 130 -19 37 -59 78
-107 111 -44 31 -259 150 -270 150 -21 0 41 -46 144 -107 144 -85 204 -139
265 -241 54 -89 69 -150 43 -171 -9 -7 -16 -20 -16 -27 0 -8 -4 -14 -9 -14 -5
0 -12 -18 -16 -41 -6 -36 -10 -40 -29 -34 -61 20 -80 17 -114 -16 -18 -18 -36
-45 -39 -61 l-6 -28 -26 26 c-53 53 -116 88 -201 112 -8 2 -54 6 -102 9 l-87
5 -7 41 c-10 65 -8 186 6 252 17 84 59 160 125 229 31 32 54 60 52 62 -2 2
-40 -31 -85 -74 -60 -56 -89 -92 -107 -134 -39 -87 -48 -249 -19 -362 7 -29 7
-29 -17 -13 -29 21 -46 22 -29 2 19 -23 -32 -31 -72 -11 -18 10 -27 11 -20 4
18 -18 15 -26 -10 -30 -12 -2 -23 -10 -26 -18 -4 -12 -2 -13 9 -2 7 6 29 12
49 12 19 0 60 7 90 15 163 44 342 -6 459 -129 19 -20 39 -36 43 -36 5 0 5 17
2 38 -5 32 -2 43 21 70 17 21 36 32 53 32 25 0 92 -38 92 -52 0 -5 9 -17 19
-27 10 -10 26 -43 34 -72 23 -80 64 -298 83 -434 8 -66 18 -122 20 -124 2 -2
4 25 4 60 -1 143 -52 416 -99 519 -24 53 -52 102 -65 111 -17 13 95 209 153
268 30 31 55 59 54 62 -1 3 -5 104 -8 224 -3 121 -7 221 -9 222 -1 2 -10 -3
-19 -10z m8 -434 c-3 -13 -10 -23 -17 -23 -8 0 -9 28 -5 98 4 53 8 144 8 202
2 91 3 80 11 -75 5 -99 6 -190 3 -202z"/>
<path d="M2350 4093 c0 -4 24 -29 54 -55 52 -46 136 -171 136 -203 0 -10 -13
-33 -30 -52 -16 -18 -30 -41 -30 -49 0 -8 -4 -13 -9 -10 -4 3 -8 -4 -7 -16 1
-13 15 -31 33 -44 18 -12 29 -25 25 -29 -4 -5 -1 -5 6 -1 15 9 142 -83 177
-128 49 -64 75 -137 75 -208 0 -77 -19 -95 -21 -20 -1 26 -5 58 -9 72 -5 15
-6 -3 -2 -42 4 -54 2 -68 -9 -68 -8 0 1 -10 18 -21 44 -28 60 -81 44 -146 -22
-85 -46 -126 -173 -294 -68 -90 -160 -215 -203 -278 -44 -62 -86 -122 -94
-133 -12 -17 -12 -21 -1 -28 25 -15 7 -18 -40 -6 -29 8 -44 16 -42 25 2 8 -1
17 -6 20 -12 8 -73 148 -107 244 -33 96 -134 336 -135 321 -1 -27 114 -330
184 -486 9 -21 15 -38 13 -38 -6 0 -67 100 -67 108 0 4 -25 36 -55 70 -30 35
-55 68 -55 75 0 8 -3 8 -12 -1 -8 -8 -2 -22 28 -54 22 -24 66 -82 98 -131 33
-50 62 -84 68 -80 6 3 8 1 4 -5 -3 -6 -2 -13 4 -17 17 -10 11 -27 -7 -23 -10
2 -23 -3 -30 -12 -10 -13 -14 -13 -25 -1 -11 12 -11 13 0 6 11 -6 12 -3 4 12
-23 41 -232 202 -327 251 -70 36 -299 112 -303 101 -2 -5 4 -16 12 -25 9 -8
16 -19 16 -23 0 -4 37 -32 83 -61 45 -29 106 -69 136 -89 29 -20 74 -50 100
-67 46 -30 221 -107 229 -100 2 2 -27 18 -65 36 -101 47 -355 202 -344 210 6
3 -3 14 -21 24 -17 11 -28 14 -24 7 12 -19 -4 -12 -49 20 -51 37 -67 64 -32
54 30 -9 123 -44 174 -67 23 -10 45 -18 48 -18 14 0 185 -124 263 -190 59 -51
84 -80 89 -101 5 -27 23 -42 23 -19 0 6 5 10 10 10 6 0 10 -7 10 -15 0 -8 -6
-15 -12 -15 -9 0 -8 -4 2 -11 12 -9 11 -10 -7 -6 -13 3 -23 1 -23 -4 0 -5 -5
-9 -10 -9 -6 0 -8 11 -6 25 3 14 0 25 -5 25 -5 0 -9 -7 -9 -15 0 -8 -4 -15 -8
-15 -23 0 -217 45 -282 66 -170 53 -310 175 -340 296 -9 35 -19 48 -46 63 -69
37 -131 133 -180 279 -34 99 -40 180 -19 251 l17 59 -29 19 c-15 11 -76 69
-135 130 -59 61 -110 108 -113 105 -3 -3 53 -65 125 -138 76 -78 129 -139 126
-147 -8 -20 -22 -16 -44 12 -11 13 -23 21 -27 17 -5 -4 -5 -1 -1 5 4 8 -6 26
-26 46 -43 43 -168 203 -168 215 0 5 -7 15 -15 22 -12 10 -16 9 -21 -3 -6 -17
143 -230 232 -333 46 -52 52 -64 46 -88 -7 -27 -9 -25 -78 61 -39 48 -92 121
-119 161 -26 40 -52 75 -57 78 -21 13 112 -180 178 -257 73 -87 103 -134 91
-145 -4 -4 -33 4 -65 18 -31 14 -78 28 -102 32 l-45 6 52 -19 c29 -11 79 -34
110 -50 56 -30 59 -33 76 -94 10 -34 34 -94 53 -134 19 -39 34 -73 34 -75 0
-2 -25 -1 -55 0 -32 2 -62 -1 -69 -7 -8 -7 -28 -13 -45 -14 -17 -1 -31 -6 -31
-10 0 -4 -13 -14 -29 -20 -71 -30 -182 -144 -197 -201 -3 -14 -9 -26 -11 -26
-3 0 -29 13 -57 30 -106 60 -198 185 -261 353 -10 26 -20 45 -23 43 -7 -8 56
-174 91 -241 18 -33 51 -79 74 -102 l42 -43 -42 0 c-63 0 -154 -27 -222 -65
-68 -38 -165 -124 -165 -146 0 -8 11 -1 24 17 14 17 43 39 65 49 23 10 41 21
41 25 0 8 39 23 53 21 5 -1 6 3 2 9 -3 5 -1 10 5 10 6 0 8 6 4 13 -5 9 -4 9 6
0 8 -7 19 -8 29 -3 48 26 93 39 156 45 61 5 76 3 115 -17 25 -13 47 -31 48
-42 3 -11 0 -16 -7 -12 -14 9 -14 3 0 -26 7 -16 7 -32 0 -50 -12 -32 -25 -34
-325 -48 -121 -6 -224 -14 -229 -17 -6 -3 -2 -12 9 -20 15 -11 75 -13 292 -13
l273 1 25 -36 c13 -20 24 -38 24 -39 0 -2 -24 -18 -52 -35 -29 -18 -69 -43
-88 -57 -33 -25 -40 -26 -125 -21 -110 7 -189 27 -278 70 -37 19 -66 29 -64
23 6 -19 135 -76 229 -101 101 -27 139 -30 169 -15 28 15 24 10 -30 -48 -86
-92 -162 -271 -160 -377 1 -21 7 -8 19 40 25 94 45 137 99 219 65 98 124 155
216 209 84 49 105 56 105 34 0 -20 89 -104 134 -127 30 -15 165 -50 193 -50 3
0 -15 -24 -39 -52 -76 -89 -116 -187 -127 -308 l-6 -75 -75 -37 c-136 -69
-290 -71 -408 -8 -29 16 -52 25 -50 20 2 -5 35 -35 74 -68 68 -57 177 -112
223 -112 19 0 19 -4 -13 -62 -50 -92 -62 -139 -47 -188 13 -45 21 -49 39 -19
8 12 9 18 3 14 -11 -6 -15 6 -11 40 2 25 66 154 87 178 9 9 14 20 10 23 -3 3
-19 -13 -36 -36 -26 -35 -44 -76 -77 -169 -2 -8 -7 -11 -10 -8 -8 8 20 96 49
154 38 73 68 106 150 157 115 71 110 71 105 -12 l-5 -71 -84 -80 c-46 -44 -81
-82 -78 -85 3 -3 38 26 78 64 40 39 78 70 85 70 7 0 17 20 24 44 9 35 8 61 -4
132 -28 162 6 285 119 426 26 32 94 88 108 88 2 0 5 -14 6 -31 1 -18 10 -43
20 -58 10 -14 17 -29 16 -32 -5 -15 75 -2 112 18 22 12 36 22 30 22 -5 0 -21
-6 -35 -14 -28 -16 -59 -20 -45 -6 24 24 298 127 321 121 4 -1 10 2 13 7 5 6
115 63 124 63 1 0 -36 -39 -83 -88 -47 -48 -112 -127 -145 -175 -128 -187
-210 -290 -281 -354 -81 -74 -95 -83 -174 -113 -40 -15 -46 -19 -20 -14 94 16
206 100 309 231 87 110 101 126 106 121 2 -2 -3 -28 -11 -57 -20 -66 -12 -111
26 -149 l29 -29 -42 -24 c-135 -77 -257 -116 -399 -126 l-93 -6 -108 -100
c-59 -55 -123 -112 -142 -125 -42 -30 -43 -38 -7 -45 33 -7 62 11 93 55 22 32
21 32 -19 -6 -23 -22 -44 -37 -47 -34 -9 8 91 88 100 80 5 -4 5 -1 1 6 -4 7 0
15 10 19 10 4 43 33 73 65 60 61 58 60 193 73 32 3 92 16 133 29 42 13 75 21
73 18 -2 -4 -30 -60 -63 -126 -48 -95 -70 -127 -111 -162 -87 -75 -271 -144
-381 -144 -39 0 -53 -4 -53 -14 0 -60 293 16 419 109 32 24 62 41 65 38 3 -4
6 -17 6 -30 0 -25 -15 -31 -24 -10 -3 6 -4 -6 -1 -28 7 -53 79 -198 121 -245
18 -20 30 -40 26 -44 -4 -4 0 -6 8 -4 8 2 14 -1 15 -7 1 -15 15 -35 25 -35 4
0 10 7 14 15 3 9 -16 39 -48 76 -80 91 -108 154 -114 250 -6 99 7 150 68 274
49 100 50 100 105 122 30 11 55 20 55 19 0 -1 -9 -21 -20 -44 -11 -23 -23 -63
-27 -89 -3 -27 -9 -55 -14 -64 -6 -12 3 -17 50 -27 31 -7 79 -15 106 -18 27
-3 52 -6 55 -7 3 0 32 2 66 6 44 6 67 14 82 30 27 29 44 74 32 82 -6 4 -10 -3
-10 -14 0 -12 -4 -21 -8 -21 -5 0 -15 -11 -22 -25 -14 -25 -40 -34 -40 -14 0
8 -5 8 -15 -1 -8 -7 -15 -10 -15 -6 0 4 -11 -1 -25 -10 -34 -22 -42 -11 -22
31 9 19 13 35 8 35 -4 0 -15 -19 -24 -41 -13 -32 -20 -39 -29 -31 -7 6 -39 13
-70 16 -59 5 -98 22 -98 43 0 35 60 154 106 212 2 2 12 -7 23 -21 41 -51 162
-62 209 -18 12 11 24 20 28 20 4 0 19 10 32 23 l24 22 -7 -35 c-3 -19 -7 -51
-8 -70 -1 -19 -6 -41 -10 -47 -5 -8 -4 -13 3 -13 12 0 3 -47 -13 -67 -6 -9 -6
-13 2 -13 6 0 13 11 17 24 7 28 34 44 34 20 0 -27 54 -154 77 -181 13 -14 23
-30 23 -35 0 -5 9 -12 20 -16 19 -7 18 -10 -17 -72 -73 -124 -197 -221 -378
-295 -49 -21 -96 -42 -102 -47 -10 -8 -13 -6 -13 5 0 11 51 42 148 92 81 41
156 82 166 90 28 21 15 28 -14 7 -13 -9 -86 -48 -164 -87 -162 -80 -189 -107
-147 -146 l23 -22 97 28 c53 15 133 42 179 61 45 19 84 34 86 34 2 0 7 -19 10
-43 12 -78 115 -227 149 -214 35 13 47 72 47 231 0 83 -4 157 -9 165 -16 26
-23 -49 -19 -204 2 -80 1 -145 -3 -145 -9 0 -26 43 -40 104 -8 31 -17 56 -20
56 -4 0 -3 -16 2 -36 6 -19 8 -41 6 -47 -2 -7 7 -29 20 -49 12 -21 23 -42 23
-48 0 -44 -76 57 -126 166 l-36 79 64 57 c34 31 59 60 55 64 -4 5 -12 2 -16
-5 -5 -7 -14 -10 -20 -7 -6 4 -10 3 -9 -2 3 -8 -67 -82 -77 -82 -3 0 -5 12 -5
28 0 20 16 45 60 91 34 35 69 80 80 100 36 67 33 66 81 31 28 -20 51 -29 64
-26 17 4 25 -2 37 -28 45 -93 193 -211 356 -282 120 -52 200 -43 279 33 71 69
78 72 45 18 -32 -52 -62 -79 -121 -110 -48 -24 -99 -15 -223 41 -93 42 -217
94 -225 94 -2 0 -3 -7 -3 -15 0 -8 8 -15 18 -15 22 -1 273 -106 281 -118 19
-29 114 -31 168 -3 106 54 172 178 179 336 2 54 1 72 -5 55 -5 -14 -9 -39 -10
-56 -1 -41 -27 -125 -45 -149 -10 -13 -8 0 6 35 17 44 22 77 22 162 l0 108 23
-22 c24 -22 30 -34 13 -23 -5 3 -10 2 -10 -3 0 -40 372 -124 452 -101 44 12
54 20 63 47 6 21 -15 45 -169 198 -97 96 -176 179 -176 184 0 5 9 14 20 20 21
11 60 79 60 105 0 22 13 19 111 -25 50 -21 87 -36 85 -31 -6 9 0 11 84 16 36
3 90 7 120 10 l55 4 -45 -13 c-25 -7 -73 -12 -107 -12 -33 1 -59 -2 -56 -7 2
-4 37 -7 77 -7 76 0 154 19 219 52 22 11 41 17 44 14 10 -10 -54 -96 -71 -96
-3 0 -17 -5 -33 -12 -47 -19 -56 -21 -133 -25 -63 -4 -76 -2 -88 14 -13 16
-14 16 -9 0 7 -19 6 -19 -76 2 -22 5 -39 5 -43 0 -6 -10 -1 -12 81 -31 l60
-13 23 -69 c13 -39 24 -95 25 -125 2 -54 1 -56 -23 -53 -42 6 -130 70 -245
181 -60 58 -103 98 -96 88 7 -9 10 -17 5 -17 -15 -1 239 -241 264 -251 13 -5
20 -13 17 -19 -10 -17 71 -12 85 5 20 24 8 160 -18 214 -27 55 -27 53 3 45 39
-10 153 14 196 42 39 24 108 108 109 131 0 19 -39 19 -130 1 -181 -38 -299
-34 -425 13 l-50 19 -1 104 c-2 117 -20 194 -66 274 l-29 52 28 0 c35 0 97 28
152 68 24 18 50 29 59 25 12 -3 13 -2 4 4 -10 7 -5 22 20 66 18 31 37 56 42
57 5 0 43 -16 85 -36 99 -48 193 -142 244 -242 32 -65 43 -102 76 -267 9 -45
9 -42 4 30 -11 168 -67 308 -157 397 -27 26 -45 48 -39 48 5 0 14 -5 20 -11
30 -30 306 74 363 137 27 29 14 25 -36 -13 -39 -29 -149 -79 -194 -87 -27 -5
-22 -1 22 17 64 27 138 69 186 105 38 29 43 62 10 62 -19 0 -20 -2 -8 -10 12
-8 13 -12 2 -19 -8 -4 -13 -12 -12 -17 3 -15 -160 -103 -229 -124 -91 -29
-149 -26 -231 10 -38 17 -73 30 -79 30 -19 0 -12 16 27 57 l37 41 128 11 c169
15 349 41 365 53 34 28 7 31 -247 24 -191 -5 -261 -4 -266 5 -4 6 7 25 26 43
32 30 32 30 9 2 -34 -40 -8 -24 73 46 37 32 76 58 87 58 29 0 162 -38 174 -50
6 -6 -5 -5 -28 1 -21 6 -40 8 -42 6 -6 -6 87 -31 104 -28 7 1 11 -3 10 -9 -2
-6 17 -19 41 -30 31 -14 40 -16 32 -6 -38 45 -209 126 -266 126 -31 0 -32 13
-2 33 12 9 16 16 9 16 -7 1 -20 -8 -29 -19 -31 -36 -35 -21 -4 18 16 20 41 59
55 86 14 27 26 43 27 35 1 -28 29 78 40 152 11 76 0 159 -21 159 -16 0 -20
-18 -6 -23 43 -17 15 -153 -62 -301 -52 -102 -144 -203 -228 -252 -54 -31 -64
-41 -64 -65 0 -12 7 -14 30 -11 25 4 31 0 40 -23 14 -36 6 -59 -25 -73 -13 -6
-51 -51 -84 -100 -63 -94 -99 -131 -163 -163 -61 -31 -177 -57 -285 -65 -110
-7 -157 5 -276 73 -34 19 -123 67 -197 106 -74 39 -155 84 -180 101 -45 31
-80 41 -80 24 0 -5 -4 -6 -10 -3 -15 9 -12 25 6 25 8 0 12 5 9 10 -3 6 -17 10
-31 10 -22 0 -24 3 -18 23 5 12 7 34 6 50 -1 19 4 27 15 27 13 0 13 -3 3 -15
-9 -11 -9 -15 -1 -15 6 0 14 7 17 15 3 8 27 26 52 41 26 15 65 42 88 61 22 18
45 29 49 25 5 -4 5 -2 2 5 -8 12 159 124 285 191 76 40 279 112 317 112 24 0
38 -18 44 -55 4 -28 4 -28 6 6 1 24 -5 42 -19 54 -19 17 -25 16 -165 -30 -207
-66 -330 -134 -569 -312 -54 -41 -100 -73 -101 -71 -15 15 -3 49 29 82 20 21
55 66 78 100 22 33 55 76 71 94 17 17 27 32 23 32 -5 0 -3 6 4 14 6 8 17 13
25 10 7 -3 16 -1 20 5 3 7 0 8 -10 5 -11 -5 -14 -2 -9 10 3 9 10 14 14 11 4
-3 13 1 19 9 8 9 8 15 2 18 -6 1 7 26 29 53 146 186 186 264 177 356 -3 31
-12 70 -21 87 -16 31 -15 32 14 66 40 45 100 80 175 101 47 14 81 17 160 12
55 -3 115 -11 133 -18 l34 -12 -43 -43 c-24 -24 -40 -44 -37 -44 4 0 28 21 54
46 36 36 43 48 33 55 -26 17 -94 32 -147 33 l-53 1 7 50 c17 111 1 254 -39
353 -27 67 -85 159 -106 167 -11 4 -10 0 3 -17 46 -65 68 -113 87 -189 18 -70
21 -103 16 -199 -5 -127 -17 -173 -44 -169 -53 8 -168 -38 -212 -85 -28 -30
-41 -26 -41 14 0 16 -11 58 -24 94 -37 98 -86 151 -207 222 -44 26 -82 51 -85
55 -8 14 32 83 75 127 55 57 133 106 215 137 59 22 73 24 98 14 15 -6 28 -14
28 -18 0 -3 -16 -21 -35 -40 -38 -38 -84 -118 -132 -231 -42 -98 -42 -125 0
-37 18 39 36 65 41 60 5 -4 6 -3 3 4 -9 15 7 57 30 81 10 10 27 34 37 53 34
62 67 99 87 99 10 0 19 5 19 10 0 6 -9 10 -20 10 -12 0 -33 9 -48 20 l-28 21
-75 -27 c-67 -24 -200 -101 -215 -125 -3 -5 -19 18 -36 51 -40 80 -178 230
-178 193z m-949 -1395 c51 -21 58 -26 61 -55 2 -18 0 -33 -6 -33 -5 0 -3 -6 6
-12 9 -7 32 -38 51 -68 41 -65 80 -106 122 -127 44 -23 80 -53 64 -53 -8 -1 2
-8 21 -16 19 -9 113 -28 207 -44 95 -16 181 -34 192 -39 25 -14 34 -14 25 0
-4 7 2 9 17 7 33 -4 34 -22 2 -36 l-28 -12 27 5 c16 3 28 0 31 -8 3 -7 6 -5 6
6 1 14 21 27 21 13 0 -2 3 -12 6 -21 6 -14 1 -16 -22 -15 -16 1 -38 2 -49 1
-19 -2 -19 -2 -2 -12 10 -6 25 -8 33 -5 9 3 14 -1 14 -12 1 -16 1 -16 11 1 5
9 14 17 20 17 14 0 -19 -60 -34 -60 -10 -1 -47 -62 -160 -265 -15 -27 -64
-131 -108 -230 -44 -99 -84 -188 -90 -198 -12 -22 -8 -30 12 -22 21 8 129 177
128 200 0 6 -7 -3 -15 -20 -27 -51 -97 -156 -101 -151 -2 2 18 50 45 107 28
57 53 114 56 126 4 12 21 39 38 60 16 21 66 111 111 201 53 109 84 161 93 158
7 -3 14 4 16 16 2 12 9 24 17 26 11 4 12 -1 7 -19 -4 -13 -10 -44 -12 -69 -32
-336 -79 -495 -172 -588 -57 -57 -160 -105 -227 -106 -39 0 -60 5 -72 17 -16
15 -15 18 3 38 l19 21 -35 -7 c-30 -5 -39 -2 -60 20 -22 23 -25 36 -25 99 0
65 4 81 42 157 53 107 122 198 212 280 67 62 200 149 249 164 12 3 22 10 22
15 0 13 -47 -3 -135 -47 -44 -22 -145 -66 -225 -97 -80 -32 -192 -77 -250
-102 -58 -24 -109 -44 -115 -44 -5 1 -23 21 -39 46 -54 86 -34 173 61 266 54
53 121 81 243 103 57 10 65 13 35 13 -22 1 -71 -7 -110 -17 -38 -10 -77 -16
-85 -13 -8 3 -12 2 -8 -3 4 -4 -13 -21 -37 -37 -88 -58 -163 -176 -144 -226
15 -39 2 -45 -85 -40 -159 10 -266 79 -345 222 -22 40 -47 78 -55 85 -21 17
-20 48 0 59 14 8 15 14 4 43 -18 49 1 105 58 181 113 150 294 213 443 156z
m274 -88 c3 -5 2 -10 -4 -10 -5 0 -13 5 -16 10 -3 6 -2 10 4 10 5 0 13 -4 16
-10z m529 -266 c9 -3 16 -15 16 -25 0 -24 -26 -15 -33 12 -6 21 -5 22 17 13z
m91 -27 c25 5 28 3 18 -8 -15 -15 -17 -33 -4 -25 5 3 11 -3 14 -15 4 -14 -1
-23 -16 -29 -16 -6 -17 -9 -5 -9 11 -1 15 -7 11 -22 -4 -16 -12 -20 -29 -16
-25 4 -30 -6 -18 -37 3 -9 10 -13 15 -10 5 3 9 1 9 -5 0 -15 -14 -21 -29 -11
-16 9 -21 48 -9 72 6 13 5 16 -7 12 -10 -4 -15 0 -15 10 0 9 -7 16 -15 16 -8
0 -15 5 -15 10 0 6 5 10 10 10 6 0 10 5 10 10 0 6 -7 10 -15 10 -8 0 -15 5
-15 11 0 6 5 9 12 7 12 -4 23 -21 32 -51 3 -10 10 -16 16 -12 6 4 5 14 -3 27
-9 16 -9 22 1 25 17 6 15 23 -3 23 -16 0 -20 12 -8 24 4 4 12 1 18 -7 7 -10
21 -13 40 -10z m-1430 -47 c10 -17 -11 -19 -240 -22 -121 -2 -206 0 -190 3 17
4 77 8 135 9 58 1 134 6 170 10 99 11 118 11 125 0z m3060 -11 l150 -1 -105
-13 c-58 -7 -144 -15 -191 -19 -76 -6 -87 -5 -93 10 -9 24 12 36 54 29 19 -2
103 -5 185 -6z m-1588 -87 c1 -9 3 -24 5 -31 5 -24 -29 -25 -37 -2 -3 12 -11
21 -16 21 -5 0 -9 5 -9 10 0 15 30 12 30 -2 0 -7 5 -5 11 5 13 21 14 21 16 -1z
m81 -59 c59 -44 218 -220 272 -303 27 -41 54 -80 59 -86 5 -7 8 -14 5 -17 -2
-2 2 -30 11 -63 28 -109 16 -202 -26 -189 -17 6 -19 3 -13 -22 4 -15 11 -30
15 -33 15 -10 31 -101 27 -145 -8 -66 -45 -108 -121 -137 -94 -37 -205 -105
-269 -166 l-57 -54 -59 40 c-32 22 -73 57 -91 78 -33 37 -101 166 -101 191 0
7 -5 22 -12 33 -15 23 -6 51 62 195 77 163 110 270 111 367 0 34 3 81 8 103 6
37 8 33 14 -41 12 -139 48 -233 114 -300 52 -52 169 -151 216 -182 43 -28 111
-44 126 -29 16 16 32 -38 25 -85 -4 -22 -17 -52 -30 -68 -13 -15 -24 -31 -24
-35 0 -5 11 5 25 21 37 43 49 96 35 155 -12 48 -22 60 -35 39 -9 -15 -62 -12
-95 5 -33 17 -200 162 -236 205 -64 75 -108 240 -109 403 0 84 3 110 15 117
17 11 48 -50 75 -150 20 -73 68 -174 87 -186 9 -6 8 0 -2 16 -27 43 -42 82
-28 74 8 -5 9 -2 5 10 -4 10 -3 15 4 11 5 -4 7 -14 5 -23 -3 -10 -1 -24 5 -32
8 -12 9 -10 4 8 -10 34 1 26 26 -18 12 -22 24 -38 26 -36 2 1 -26 54 -62 117
-79 138 -94 179 -75 214 17 31 22 31 68 -2z m92 -33 c105 -69 315 -185 395
-217 57 -23 96 -33 135 -33 56 1 169 14 206 25 17 6 25 -4 57 -72 61 -131 69
-313 18 -428 -11 -25 -26 -45 -34 -45 -8 0 -23 -23 -34 -52 -15 -42 -23 -52
-38 -50 -221 29 -311 60 -396 140 -62 57 -69 74 -43 103 31 35 34 94 8 177
-13 42 -22 77 -20 79 1 1 31 -29 67 -69 110 -122 198 -212 203 -207 3 2 -32
43 -77 90 -102 106 -209 232 -255 300 -19 29 -71 90 -115 136 -44 46 -77 83
-73 83 4 0 33 -22 64 -49 57 -48 187 -141 198 -141 3 0 18 -8 32 -19 15 -10
40 -19 56 -19 18 0 24 3 15 9 -7 4 -17 5 -22 2 -5 -3 -13 1 -18 8 -4 8 -12 14
-17 14 -16 0 -167 103 -253 172 -46 37 -98 78 -114 91 -38 30 -16 18 55 -28z
m-424 -669 c-9 -17 -20 -47 -25 -68 l-9 -38 -1 46 c-1 33 5 54 20 73 27 34 35
27 15 -13z m-971 13 c-11 -9 -36 -23 -55 -31 -19 -8 -57 -33 -83 -55 -27 -23
-54 -37 -62 -34 -8 3 -15 1 -15 -4 0 -5 -18 -3 -40 5 -22 8 -44 15 -48 16 -24
5 -55 21 -74 39 -26 24 -26 24 36 5 27 -8 68 -14 90 -14 39 1 40 2 11 9 -16 4
-23 8 -14 9 9 0 32 4 50 7 25 4 30 3 19 -5 -8 -5 -11 -13 -7 -18 5 -4 17 3 29
17 11 14 17 19 13 11 -6 -9 -1 -9 17 3 13 8 33 17 43 19 11 2 34 10 50 20 40
22 68 22 40 1z m1708 -110 c16 -14 56 -38 87 -54 32 -16 61 -37 65 -47 31 -76
77 -230 86 -285 28 -179 -83 -383 -199 -364 -59 9 -218 72 -282 111 -99 60
-220 184 -220 225 0 35 167 147 293 197 107 43 142 90 135 185 -2 32 -2 58 0
58 2 0 18 -12 35 -26z m648 -265 c104 -103 147 -152 143 -162 -18 -49 -266
-18 -430 52 -75 32 -116 81 -158 187 -20 50 -36 94 -36 98 0 3 10 1 23 -4 25
-10 156 -33 202 -34 23 -1 32 5 43 27 l14 29 25 -24 c14 -12 92 -89 174 -169z
m-1441 -374 c0 -25 -5 -37 -17 -42 -10 -3 -42 -16 -71 -29 -29 -13 -50 -18
-46 -11 4 7 -1 5 -12 -4 -10 -9 -35 -20 -54 -24 -19 -4 -39 -11 -45 -14 -10
-7 -86 -31 -99 -31 -3 0 -6 4 -6 8 0 5 26 19 58 32 87 36 224 105 252 129 34
28 40 26 40 -14z"/>
<path d="M1023 2575 c-34 -31 -71 -70 -82 -89 -33 -53 -25 -52 15 1 39 50 46
58 107 111 21 17 34 32 30 32 -4 0 -36 -25 -70 -55z"/>
<path d="M1388 2603 c6 -2 18 -2 25 0 6 3 1 5 -13 5 -14 0 -19 -2 -12 -5z"/>
<path d="M963 2418 c-34 -39 -38 -54 -8 -30 16 13 30 30 31 38 3 19 1 18 -23
-8z"/>
<path d="M1183 2413 c9 -2 23 -2 30 0 6 3 -1 5 -18 5 -16 0 -22 -2 -12 -5z"/>
<path d="M1300 2389 c-159 -13 -161 -18 -6 -12 183 7 313 6 328 -3 10 -5 10
-4 1 6 -16 17 -173 21 -323 9z"/>
<path d="M1040 2340 c-19 -4 17 -5 80 -2 63 3 117 6 119 8 8 7 -163 2 -199 -6z"/>
<path d="M1528 2333 c7 -3 16 -2 19 1 4 3 -2 6 -13 5 -11 0 -14 -3 -6 -6z"/>
<path d="M1568 2333 c7 -3 16 -2 19 1 4 3 -2 6 -13 5 -11 0 -14 -3 -6 -6z"/>
<path d="M948 2323 c6 -2 18 -2 25 0 6 3 1 5 -13 5 -14 0 -19 -2 -12 -5z"/>
<path d="M904 2291 c4 -5 21 -20 39 -32 l32 -23 -20 23 c-22 25 -62 51 -51 32z"/>
<path d="M1960 2266 c0 -3 24 -12 53 -20 89 -26 107 -29 107 -18 0 5 -28 15
-62 21 -35 7 -71 14 -80 17 -10 3 -18 3 -18 0z"/>
<path d="M1785 2193 c-34 -8 -38 -20 -5 -15 17 2 33 8 36 13 5 9 1 10 -31 2z"/>
<path d="M2108 2193 c-6 -15 -78 -43 -93 -37 -22 9 -18 22 8 27 12 3 -9 2 -48
0 -152 -12 -343 -76 -470 -159 -38 -25 -65 -44 -60 -42 37 14 111 52 113 59 2
5 10 9 18 9 8 0 14 5 14 10 0 6 8 10 18 10 10 0 22 3 26 7 3 4 12 8 19 9 7 2
44 12 82 24 159 49 231 60 251 40 13 -13 50 -14 105 0 39 9 46 14 42 31 -5 19
-18 25 -25 12z"/>
<path d="M1705 2160 c-3 -6 1 -7 9 -4 18 7 21 14 7 14 -6 0 -13 -4 -16 -10z"/>
<path d="M1539 2080 c-83 -50 -145 -99 -106 -84 9 3 17 9 17 13 0 4 41 31 90
60 79 47 99 61 87 61 -2 0 -42 -23 -88 -50z"/>
<path d="M1855 2106 c-44 -11 -73 -22 -65 -23 8 -2 56 8 105 21 50 14 79 25
65 24 -14 0 -61 -10 -105 -22z"/>
<path d="M2008 2124 c-4 -3 -48 -18 -100 -34 -51 -16 -87 -29 -79 -29 28 -2
166 41 181 55 8 8 12 14 9 14 -3 0 -8 -3 -11 -6z"/>
<path d="M2095 2035 c-31 -42 -55 -78 -53 -80 2 -2 30 30 61 72 32 41 56 77
54 80 -3 2 -30 -30 -62 -72z"/>
<path d="M1738 2073 c7 -3 16 -2 19 1 4 3 -2 6 -13 5 -11 0 -14 -3 -6 -6z"/>
<path d="M1625 2040 c-13 -5 -14 -9 -5 -9 8 0 24 4 35 9 13 5 14 9 5 9 -8 0
-24 -4 -35 -9z"/>
<path d="M1741 2039 c-18 -6 -31 -12 -29 -14 5 -5 78 14 78 20 0 6 -8 5 -49
-6z"/>
<path d="M1130 2025 c14 -8 30 -14 35 -14 6 0 -1 6 -15 14 -14 8 -29 14 -35
14 -5 0 1 -6 15 -14z"/>
<path d="M1525 1995 c-85 -40 -81 -45 7 -8 70 29 73 31 67 37 -2 2 -35 -11
-74 -29z"/>
<path d="M1520 1960 c-8 -5 -10 -10 -5 -10 6 0 17 5 25 10 8 5 11 10 5 10 -5
0 -17 -5 -25 -10z"/>
<path d="M2162 1930 c0 -14 2 -19 5 -12 2 6 2 18 0 25 -3 6 -5 1 -5 -13z"/>
<path d="M2035 1743 c-10 -21 -22 -46 -27 -56 -5 -11 -7 -21 -5 -24 3 -2 17
21 32 52 14 31 25 59 22 61 -2 2 -12 -13 -22 -33z"/>
<path d="M2021 1576 c-7 -8 -8 -17 -3 -20 6 -3 12 3 15 14 6 24 4 25 -12 6z"/>
<path d="M1909 1423 c-13 -16 -12 -17 4 -4 16 13 21 21 13 21 -2 0 -10 -8 -17
-17z"/>
<path d="M1815 1390 c-4 -6 3 -10 14 -10 25 0 27 6 6 13 -8 4 -17 2 -20 -3z"/>
<path d="M2270 2286 c0 -8 -6 -17 -12 -19 -7 -3 -1 -6 15 -6 29 -1 30 0 21 23
-8 20 -24 21 -24 2z"/>
<path d="M2270 2210 c0 -5 5 -10 10 -10 6 0 10 5 10 10 0 6 -4 10 -10 10 -5 0
-10 -4 -10 -10z"/>
<path d="M2380 2086 c0 -2 7 -9 15 -16 13 -11 14 -10 9 4 -5 14 -24 23 -24 12z"/>
<path d="M2410 2040 c0 -5 5 -10 11 -10 5 0 7 5 4 10 -3 6 -8 10 -11 10 -2 0
-4 -4 -4 -10z"/>
<path d="M2302 1990 c0 -14 2 -19 5 -12 2 6 2 18 0 25 -3 6 -5 1 -5 -13z"/>
<path d="M2461 1735 c-1 -6 6 -21 16 -34 27 -39 63 -111 55 -111 -4 0 -2 -4 3
-8 11 -7 65 -116 65 -131 0 -5 7 -14 15 -21 8 -7 15 -9 15 -5 0 19 -94 215
-103 215 -6 0 -7 3 -4 6 4 4 -4 19 -16 34 -12 15 -27 36 -34 46 -6 11 -12 14
-12 9z"/>
<path d="M2322 1540 c0 -14 2 -19 5 -12 2 6 2 18 0 25 -3 6 -5 1 -5 -13z"/>
<path d="M2332 1480 c0 -14 2 -19 5 -12 2 6 2 18 0 25 -3 6 -5 1 -5 -13z"/>
<path d="M2262 1430 c0 -19 2 -27 5 -17 2 9 2 25 0 35 -3 9 -5 1 -5 -18z"/>
<path d="M2392 1420 c0 -14 2 -19 5 -12 2 6 2 18 0 25 -3 6 -5 1 -5 -13z"/>
<path d="M2343 1397 c4 -10 7 -33 7 -50 0 -22 3 -28 9 -18 9 14 -2 68 -15 80
-4 3 -4 -2 -1 -12z"/>
<path d="M2401 1374 c0 -11 3 -14 6 -6 3 7 2 16 -1 19 -3 4 -6 -2 -5 -13z"/>
<path d="M2311 1364 c0 -11 3 -14 6 -6 3 7 2 16 -1 19 -3 4 -6 -2 -5 -13z"/>
<path d="M2400 1345 c0 -5 5 -17 10 -25 5 -8 10 -10 10 -5 0 6 -5 17 -10 25
-5 8 -10 11 -10 5z"/>
<path d="M2462 1310 c0 -14 2 -19 5 -12 2 6 2 18 0 25 -3 6 -5 1 -5 -13z"/>
<path d="M2691 1254 c0 -11 3 -14 6 -6 3 7 2 16 -1 19 -3 4 -6 -2 -5 -13z"/>
<path d="M2481 1234 c0 -11 3 -14 6 -6 3 7 2 16 -1 19 -3 4 -6 -2 -5 -13z"/>
<path d="M2621 1214 c0 -11 3 -14 6 -6 3 7 2 16 -1 19 -3 4 -6 -2 -5 -13z"/>
<path d="M2462 1170 c0 -14 2 -19 5 -12 2 6 2 18 0 25 -3 6 -5 1 -5 -13z"/>
<path d="M2330 1171 c0 -5 5 -13 10 -16 6 -3 10 -2 10 4 0 5 -4 13 -10 16 -5
3 -10 2 -10 -4z"/>
<path d="M2605 1169 c-4 -6 -5 -12 -2 -15 2 -3 7 2 10 11 7 17 1 20 -8 4z"/>
<path d="M2246 1147 c3 -10 9 -15 12 -12 3 3 0 11 -7 18 -10 9 -11 8 -5 -6z"/>
<path d="M2341 1124 c0 -11 3 -14 6 -6 3 7 2 16 -1 19 -3 4 -6 -2 -5 -13z"/>
<path d="M2461 1124 c0 -11 3 -14 6 -6 3 7 2 16 -1 19 -3 4 -6 -2 -5 -13z"/>
<path d="M2391 1114 c0 -11 3 -14 6 -6 3 7 2 16 -1 19 -3 4 -6 -2 -5 -13z"/>
<path d="M2320 961 c0 -7 -5 -9 -12 -5 -7 5 -8 3 -3 -5 5 -9 10 -10 18 -2 6 6
8 14 4 18 -4 3 -7 1 -7 -6z"/>
<path d="M2903 1803 c4 -6 4 -13 0 -16 -5 -2 -3 -2 4 -1 6 2 13 -2 16 -9 2 -6
7 -2 11 8 4 11 4 16 0 12 -4 -4 -14 -1 -22 6 -11 8 -14 8 -9 0z"/>
<path d="M2950 1786 c0 -4 8 -15 18 -25 17 -19 77 -27 66 -9 -3 5 -13 7 -22 3
-8 -3 -25 4 -39 16 -12 13 -23 19 -23 15z"/>
<path d="M3160 1780 c19 -13 30 -13 30 0 0 6 -10 10 -22 10 -19 0 -20 -2 -8
-10z"/>
<path d="M2930 1694 c36 -38 67 -68 69 -67 6 4 -62 79 -99 109 -19 15 -6 -3
30 -42z"/>
<path d="M3180 1748 c0 -4 4 -8 9 -8 6 0 12 4 15 8 3 5 -1 9 -9 9 -8 0 -15 -4
-15 -9z"/>
<path d="M3241 1655 c0 -18 28 -61 29 -44 0 8 -7 24 -15 35 -8 10 -14 15 -14
9z"/>
<path d="M2980 1585 c19 -19 36 -35 39 -35 3 0 -10 16 -29 35 -19 19 -36 35
-39 35 -3 0 10 -16 29 -35z"/>
<path d="M3061 1544 c66 -66 96 -89 43 -31 -17 17 -41 45 -53 61 -12 17 -29
31 -38 32 -9 2 13 -26 48 -62z"/>
<path d="M3110 1586 c14 -17 43 -48 64 -70 29 -31 34 -33 18 -11 -11 17 -40
48 -64 70 -27 25 -34 29 -18 11z"/>
<path d="M3275 1568 c4 -13 11 -27 16 -33 5 -5 4 5 -2 23 -12 36 -24 44 -14
10z"/>
<path d="M3190 1466 c0 -2 8 -10 18 -17 15 -13 16 -12 3 4 -13 16 -21 21 -21
13z"/>
<path d="M3164 1445 c1 -8 12 -25 23 -37 11 -13 30 -39 42 -58 11 -19 21 -30
21 -23 0 6 -16 32 -35 57 -19 26 -35 50 -35 55 0 6 -4 12 -9 15 -5 4 -8 -1 -7
-9z"/>
<path d="M3301 1414 c0 -11 3 -14 6 -6 3 7 2 16 -1 19 -3 4 -6 -2 -5 -13z"/>
<path d="M2808 1099 c-7 -19 37 -156 46 -141 3 6 3 13 -2 16 -7 4 -16 37 -36
130 -1 6 -5 3 -8 -5z"/>
<path d="M2730 1094 c0 -6 6 -18 13 -28 13 -17 14 -18 20 -2 4 10 11 15 15 12
5 -3 9 1 9 8 0 7 -6 13 -13 13 -7 0 -11 -4 -8 -9 8 -12 -10 -10 -24 4 -7 7
-12 8 -12 2z"/>
<path d="M2891 1068 c6 -18 15 -44 20 -58 8 -23 8 -22 3 5 -13 73 -17 85 -24
85 -5 0 -4 -15 1 -32z"/>
<path d="M2700 1073 c0 -12 5 -25 10 -28 13 -8 13 15 0 35 -8 12 -10 11 -10
-7z"/>
<path d="M2604 1046 c-98 -45 -237 -147 -221 -163 5 -4 60 29 77 47 14 14 121
78 167 100 50 24 67 41 41 39 -7 0 -36 -11 -64 -23z"/>
<path d="M2681 980 c15 -45 24 -54 15 -15 -4 17 -12 34 -17 40 -5 5 -4 -6 2
-25z"/>
<path d="M2892 965 c0 -16 2 -22 5 -12 2 9 2 23 0 30 -3 6 -5 -1 -5 -18z"/>
<path d="M2746 965 c3 -11 11 -36 16 -55 6 -19 13 -30 15 -23 2 6 -5 31 -16
55 -12 24 -18 34 -15 23z"/>
<path d="M2851 914 c0 -11 3 -14 6 -6 3 7 2 16 -1 19 -3 4 -6 -2 -5 -13z"/>
<path d="M2903 875 c0 -27 2 -38 4 -22 2 15 2 37 0 50 -2 12 -4 0 -4 -28z"/>
<path d="M2470 895 c0 -5 10 -21 21 -35 13 -17 17 -18 10 -5 -17 33 -31 51
-31 40z"/>
<path d="M2811 884 c0 -11 3 -14 6 -6 3 7 2 16 -1 19 -3 4 -6 -2 -5 -13z"/>
<path d="M2460 860 c6 -11 13 -20 16 -20 2 0 0 9 -6 20 -6 11 -13 20 -16 20
-2 0 0 -9 6 -20z"/>
<path d="M2822 845 c0 -11 3 -29 8 -40 11 -25 11 1 0 35 -6 20 -8 21 -8 5z"/>
<path d="M2796 830 c3 -14 11 -32 16 -40 6 -10 7 -7 2 10 -3 14 -11 32 -16 40
-6 10 -7 7 -2 -10z"/>
<path d="M2480 826 c0 -2 8 -10 18 -17 15 -13 16 -12 3 4 -13 16 -21 21 -21
13z"/>
<path d="M2586 798 c10 -14 21 -24 23 -22 3 3 -6 15 -18 27 l-24 22 19 -27z"/>
<path d="M2550 745 c13 -14 26 -25 28 -25 3 0 -5 11 -18 25 -13 14 -26 25 -28
25 -3 0 5 -11 18 -25z"/>
<path d="M2660 756 c0 -2 8 -10 18 -17 15 -13 16 -12 3 4 -13 16 -21 21 -21
13z"/>
<path d="M2921 744 c0 -11 3 -14 6 -6 3 7 2 16 -1 19 -3 4 -6 -2 -5 -13z"/>
<path d="M3260 1106 c0 -3 9 -10 20 -16 11 -6 20 -8 20 -6 0 3 -9 10 -20 16
-11 6 -20 8 -20 6z"/>
<path d="M3330 1104 c0 -10 114 -114 124 -114 3 0 6 5 6 11 0 5 -4 8 -9 5 -5
-4 -11 -3 -13 1 -7 17 -108 107 -108 97z"/>
<path d="M3220 1096 c0 -2 7 -7 16 -10 8 -3 12 -2 9 4 -6 10 -25 14 -25 6z"/>
<path d="M3330 1045 c13 -14 26 -25 28 -25 3 0 -5 11 -18 25 -13 14 -26 25
-28 25 -3 0 5 -11 18 -25z"/>
<path d="M3170 1056 c0 -2 8 -10 18 -17 15 -13 16 -12 3 4 -13 16 -21 21 -21
13z"/>
<path d="M3275 1040 c10 -11 20 -20 23 -20 3 0 -3 9 -13 20 -10 11 -20 20 -23
20 -3 0 3 -9 13 -20z"/>
<path d="M3195 997 c27 -23 117 -78 105 -64 -6 6 -107 75 -124 83 -6 4 3 -5
19 -19z"/>
<path d="M3313 1013 c4 -6 26 -26 49 -45 23 -18 39 -28 35 -21 -4 6 -26 26
-49 45 -23 18 -39 28 -35 21z"/>
<path d="M3476 965 c4 -8 11 -15 16 -15 6 0 5 6 -2 15 -7 8 -14 15 -16 15 -2
0 -1 -7 2 -15z"/>
<path d="M3330 966 c0 -2 8 -10 18 -17 15 -13 16 -12 3 4 -13 16 -21 21 -21
13z"/>
<path d="M3550 912 c0 -6 -8 -12 -17 -14 -10 -3 2 -5 27 -5 25 0 38 2 30 4 -8
3 -21 10 -27 16 -9 6 -13 6 -13 -1z"/>
<path d="M2323 4079 c9 -5 17 -17 17 -26 0 -9 3 -14 6 -10 11 11 -7 47 -24 47
-16 -1 -15 -2 1 -11z"/>
<path d="M2163 4033 c-56 -54 -96 -117 -113 -182 -8 -31 -8 -47 -1 -54 8 -8
11 -4 11 14 0 40 76 185 110 209 25 18 58 60 47 60 -1 0 -26 -21 -54 -47z"/>
<path d="M2313 4015 c0 -22 2 -30 4 -17 2 12 2 30 0 40 -3 9 -5 -1 -4 -23z"/>
<path d="M2352 4015 c-1 -11 5 -51 12 -90 8 -38 14 -59 14 -45 1 14 -5 54 -12
90 -8 36 -14 56 -14 45z"/>
<path d="M2415 3995 c13 -37 37 -140 45 -190 7 -46 8 -47 9 -13 1 46 -25 163
-45 197 -9 16 -13 18 -9 6z"/>
<path d="M2961 3954 c0 -11 3 -14 6 -6 3 7 2 16 -1 19 -3 4 -6 -2 -5 -13z"/>
<path d="M1650 3935 c6 -14 15 -37 22 -52 6 -16 10 -32 9 -38 -2 -5 1 -6 5 -2
9 9 48 -69 119 -235 27 -65 51 -116 53 -113 4 3 -19 64 -63 168 -21 51 -11 47
16 -8 12 -25 24 -43 26 -41 6 6 -50 111 -102 191 -25 39 -54 89 -66 113 -22
46 -34 57 -19 17z"/>
<path d="M2323 3910 c0 -30 3 -86 7 -125 7 -68 7 -69 7 -15 0 30 -3 87 -7 125
-7 68 -7 69 -7 15z"/>
<path d="M1719 3937 c7 -9 57 -43 111 -77 54 -33 125 -83 157 -111 l58 -51
-55 53 c-52 51 -300 220 -271 186z"/>
<path d="M1616 3917 c3 -10 9 -15 12 -12 3 3 0 11 -7 18 -10 9 -11 8 -5 -6z"/>
<path d="M2411 3884 c0 -11 3 -14 6 -6 3 7 2 16 -1 19 -3 4 -6 -2 -5 -13z"/>
<path d="M2946 3878 c-19 -65 -35 -129 -46 -183 -6 -33 -13 -69 -16 -80 -2
-11 2 -6 10 10 7 17 20 64 27 105 12 67 14 71 19 40 5 -27 7 -17 12 45 6 85 5
100 -6 63z"/>
<path d="M1631 3880 c0 -14 28 -72 29 -59 0 4 -7 22 -15 40 -8 19 -14 27 -14
19z"/>
<path d="M2113 3855 c0 -22 2 -30 4 -17 2 12 2 30 0 40 -3 9 -5 -1 -4 -23z"/>
<path d="M2912 3865 c-16 -34 -64 -225 -60 -237 2 -5 14 35 27 89 13 54 30
113 38 132 16 40 12 53 -5 16z"/>
<path d="M2480 3864 c0 -10 5 -26 10 -34 8 -11 9 -7 4 15 -8 37 -14 45 -14 19z"/>
<path d="M2875 3849 c-4 -6 -5 -12 -2 -15 2 -3 7 2 10 11 7 17 1 20 -8 4z"/>
<path d="M1612 3830 c0 -14 2 -19 5 -12 2 6 2 18 0 25 -3 6 -5 1 -5 -13z"/>
<path d="M2183 3775 c0 -38 2 -53 4 -32 2 20 2 52 0 70 -2 17 -4 1 -4 -38z"/>
<path d="M2422 3815 c0 -16 2 -22 5 -12 2 9 2 23 0 30 -3 6 -5 -1 -5 -18z"/>
<path d="M2840 3779 c-12 -23 -20 -43 -18 -45 3 -2 14 17 26 41 27 56 20 60
-8 4z"/>
<path d="M2103 3765 c0 -22 2 -30 4 -17 2 12 2 30 0 40 -3 9 -5 -1 -4 -23z"/>
<path d="M2393 3765 c0 -22 2 -30 4 -17 2 12 2 30 0 40 -3 9 -5 -1 -4 -23z"/>
<path d="M1635 3750 c30 -130 66 -236 62 -182 -1 12 -4 22 -8 22 -4 0 -10 21
-14 47 -4 26 -16 67 -26 92 -11 25 -17 35 -14 21z"/>
<path d="M1670 3754 c0 -6 27 -78 60 -160 33 -82 60 -143 60 -135 0 13 -36
107 -94 246 -14 33 -26 55 -26 49z"/>
<path d="M2922 3612 c-6 -64 -19 -141 -28 -171 -8 -29 -13 -55 -11 -57 3 -3
12 23 21 58 19 69 45 288 36 288 -4 0 -12 -53 -18 -118z"/>
<path d="M2418 3715 c-2 -2 -19 -7 -38 -10 -19 -3 -42 -13 -50 -21 -13 -13
-11 -13 18 -3 18 6 39 8 48 5 10 -4 13 -2 8 6 -5 7 1 9 20 6 14 -3 26 -2 26 2
0 9 -26 21 -32 15z"/>
<path d="M1721 3695 c1 -19 18 -51 18 -35 0 8 -4 22 -9 30 -5 8 -9 11 -9 5z"/>
<path d="M1746 3627 c3 -10 9 -15 12 -12 3 3 0 11 -7 18 -10 9 -11 8 -5 -6z"/>
<path d="M954 3615 c-18 -14 -17 -14 8 -5 19 6 46 6 80 -1 29 -5 69 -11 88
-13 43 -5 182 -56 233 -86 21 -12 40 -20 43 -17 17 17 -196 100 -314 123 -93
18 -114 18 -138 -1z"/>
<path d="M3012 3600 c0 -19 2 -27 5 -17 2 9 2 25 0 35 -3 9 -5 1 -5 -18z"/>
<path d="M3348 3611 c-80 -22 -174 -66 -181 -85 -3 -8 16 -1 43 16 57 35 211
78 281 78 27 0 65 -7 84 -14 43 -18 46 -12 5 9 -39 20 -148 18 -232 -4z"/>
<path d="M2890 3563 c-18 -71 -22 -101 -11 -83 12 21 34 120 28 126 -2 3 -10
-17 -17 -43z"/>
<path d="M1180 3561 c19 -11 38 -17 42 -15 4 2 9 0 13 -6 3 -5 12 -10 18 -10
7 0 3 6 -8 12 -11 7 -21 11 -23 10 -1 -1 -15 4 -32 13 -16 8 -33 15 -37 15 -4
-1 8 -9 27 -19z"/>
<path d="M2744 3565 c-3 -8 -4 -20 -2 -27 3 -7 7 -1 10 15 6 29 1 36 -8 12z"/>
<path d="M2825 3550 c-4 -17 -5 -34 -2 -36 2 -3 7 10 11 27 8 42 0 50 -9 9z"/>
<path d="M3435 3570 c-3 -6 1 -7 9 -4 18 7 21 14 7 14 -6 0 -13 -4 -16 -10z"/>
<path d="M3499 3527 c-30 -29 -79 -74 -108 -101 -29 -26 -50 -50 -48 -53 3 -2
54 43 113 101 60 58 107 105 104 105 -3 0 -30 -23 -61 -52z"/>
<path d="M3605 3565 c-43 -19 -255 -237 -255 -262 0 -11 14 -65 31 -119 26
-85 30 -110 26 -179 -8 -151 -61 -244 -244 -431 -99 -101 -131 -127 -199 -162
-130 -66 -296 -102 -481 -102 -60 0 -71 -3 -67 -15 4 -9 -1 -17 -12 -21 -11
-3 -28 -10 -39 -15 -15 -7 -11 -7 13 -3 32 6 33 5 22 -16 -14 -27 -10 -31 60
-58 180 -67 223 -81 232 -75 7 4 8 1 3 -7 -6 -10 -4 -12 8 -7 10 3 17 2 17 -2
0 -5 7 -12 16 -15 8 -3 13 -2 9 3 -3 5 63 -24 146 -65 83 -41 154 -73 156 -70
5 5 -208 119 -299 161 -31 14 -119 47 -194 73 -76 26 -139 53 -142 60 -3 9 22
12 100 14 l103 2 -100 5 c-123 7 -113 25 15 28 47 1 139 12 205 24 66 11 132
21 147 21 15 -1 30 3 33 7 3 5 -5 7 -17 5 -13 -3 11 12 52 33 41 21 77 40 80
43 3 3 23 18 45 34 22 16 57 47 78 69 36 38 40 39 86 33 26 -3 72 -13 102 -21
30 -8 70 -18 89 -21 l35 -5 -30 15 c-31 15 -30 16 17 21 15 2 37 9 50 17 13 7
25 13 28 13 3 0 15 6 28 13 12 7 22 11 22 8 0 -3 38 17 84 44 47 26 88 45 92
42 4 -4 4 -2 1 4 -4 6 18 28 51 50 54 37 112 89 112 102 0 3 -15 -8 -32 -25
-72 -67 -327 -220 -343 -205 -5 4 -5 2 -2 -4 4 -7 -4 -14 -21 -17 -15 -3 -55
-15 -90 -27 -58 -20 -95 -21 -63 -1 8 5 -5 7 -31 4 -25 -3 -54 -1 -64 5 -16 9
-15 12 16 25 19 9 66 25 104 37 38 11 82 30 97 40 15 11 33 20 41 20 10 0 10
-3 -2 -11 -12 -9 -12 -10 3 -5 10 3 22 6 25 6 4 0 0 5 -8 11 -12 9 -11 10 8 6
12 -3 22 -2 22 2 0 4 6 8 13 8 19 1 170 74 164 79 -3 3 -18 -1 -34 -9 -33 -17
-84 -31 -98 -28 -5 2 -7 -1 -2 -5 4 -4 -21 -17 -56 -29 -35 -12 -78 -30 -96
-39 -18 -10 -40 -19 -49 -21 -42 -10 -138 -47 -159 -60 -22 -15 -53 -20 -53
-9 0 3 34 42 75 87 41 44 75 86 75 94 0 7 4 13 9 13 10 0 51 121 51 150 0 43
125 79 283 81 62 1 130 -1 152 -5 l40 -6 -30 15 c-21 10 -66 14 -148 15 l-117
0 27 50 c15 28 30 50 35 50 9 0 -23 -72 -37 -82 -6 -5 -6 -8 1 -8 32 0 72 111
80 224 6 81 -8 222 -23 237 -4 4 -8 -45 -8 -109 -1 -110 -3 -122 -33 -192 -49
-113 -92 -166 -159 -195 -30 -14 -56 -25 -57 -25 0 0 -1 30 -1 68 -1 37 -9 91
-19 121 l-17 54 60 61 c34 34 61 65 61 70 0 5 -29 -23 -65 -60 -37 -40 -64
-62 -65 -53 0 8 12 26 26 40 39 36 167 189 163 194 -2 2 -44 -41 -93 -96 -48
-54 -92 -99 -97 -99 -24 0 0 30 95 124 57 55 102 94 100 86 -3 -8 1 -6 8 5 7
10 25 32 41 48 39 41 35 47 -18 22z"/>
<path d="M1090 3566 c0 -3 9 -10 20 -16 11 -6 20 -8 20 -6 0 3 -9 10 -20 16
-11 6 -20 8 -20 6z"/>
<path d="M1860 3561 c0 -13 38 -91 45 -91 4 0 -33 91 -41 99 -2 2 -4 -1 -4 -8z"/>
<path d="M3280 3549 c-19 -11 -28 -19 -20 -19 8 0 29 9 45 20 37 25 22 24 -25
-1z"/>
<path d="M3450 3513 l-55 -58 58 55 c31 30 57 56 57 57 0 8 -10 -1 -60 -54z"/>
<path d="M885 3550 c3 -5 8 -10 11 -10 2 0 4 5 4 10 0 6 -5 10 -11 10 -5 0 -7
-4 -4 -10z"/>
<path d="M1067 3549 c7 -7 15 -10 18 -7 3 3 -2 9 -12 12 -14 6 -15 5 -6 -5z"/>
<path d="M2603 3521 c12 -22 23 -38 25 -36 5 5 -26 63 -37 69 -5 4 0 -12 12
-33z"/>
<path d="M3631 3497 c-6 -29 -20 -67 -32 -85 -11 -19 -15 -31 -9 -27 17 11 49
81 56 124 9 59 -1 51 -15 -12z"/>
<path d="M1140 3537 c0 -2 26 -21 58 -41 31 -20 45 -27 30 -14 -30 26 -88 62
-88 55z"/>
<path d="M906 3517 c3 -10 9 -15 12 -12 3 3 0 11 -7 18 -10 9 -11 8 -5 -6z"/>
<path d="M1701 3510 c0 -8 4 -24 9 -35 5 -13 9 -14 9 -5 0 8 -4 24 -9 35 -5
13 -9 14 -9 5z"/>
<path d="M888 3490 c-10 -34 1 -97 20 -112 13 -11 14 -11 6 2 -5 8 -11 42 -14
75 -4 46 -7 54 -12 35z"/>
<path d="M2512 3490 c0 -14 2 -19 5 -12 2 6 2 18 0 25 -3 6 -5 1 -5 -13z"/>
<path d="M3200 3489 c-22 -18 -22 -19 -3 -10 12 6 25 16 28 21 9 15 3 12 -25
-11z"/>
<path d="M1345 3485 c11 -9 29 -21 40 -26 20 -10 20 -10 0 6 -11 9 -29 21 -40
26 -20 10 -20 10 0 -6z"/>
<path d="M1177 3479 c7 -7 15 -10 18 -7 3 3 -2 9 -12 12 -14 6 -15 5 -6 -5z"/>
<path d="M2590 3481 c0 -6 4 -13 10 -16 6 -3 7 1 4 9 -7 18 -14 21 -14 7z"/>
<path d="M2671 3485 c-1 -5 6 -28 14 -50 8 -22 14 -33 15 -24 0 9 -7 32 -15
50 -8 19 -14 30 -14 24z"/>
<path d="M852 3426 c-2 -72 20 -160 60 -240 36 -72 27 -62 62 -70 l29 -7 -31
31 c-57 57 -103 179 -115 310 -2 21 -4 11 -5 -24z"/>
<path d="M3265 3444 c-30 -27 -32 -31 -9 -16 28 19 62 53 53 52 -2 -1 -22 -17
-44 -36z"/>
<path d="M3339 3463 c-13 -16 -12 -17 4 -4 16 13 21 21 13 21 -2 0 -10 -8 -17
-17z"/>
<path d="M2472 3450 c0 -14 2 -19 5 -12 2 6 2 18 0 25 -3 6 -5 1 -5 -13z"/>
<path d="M3557 3419 c-21 -28 -36 -53 -34 -56 6 -5 77 86 77 98 0 14 -2 11
-43 -42z"/>
<path d="M1260 3456 c0 -2 8 -10 18 -17 15 -13 16 -12 3 4 -13 16 -21 21 -21
13z"/>
<path d="M1720 3445 c0 -5 5 -17 10 -25 5 -8 10 -10 10 -5 0 6 -5 17 -10 25
-5 8 -10 11 -10 5z"/>
<path d="M3285 3429 c-34 -21 -29 -25 10 -7 14 6 25 15 25 20 0 10 1 10 -35
-13z"/>
<path d="M3646 3435 c-3 -9 -6 -24 -5 -33 0 -9 5 -4 10 12 9 32 6 48 -5 21z"/>
<path d="M2392 3410 c0 -14 2 -19 5 -12 2 6 2 18 0 25 -3 6 -5 1 -5 -13z"/>
<path d="M2721 3425 c1 -19 18 -51 18 -35 0 8 -4 22 -9 30 -5 8 -9 11 -9 5z"/>
<path d="M3324 3408 l-19 -23 23 19 c21 18 27 26 19 26 -2 0 -12 -10 -23 -22z"/>
<path d="M1189 3396 c26 -28 31 -31 31 -17 0 5 -12 17 -27 26 l-28 18 24 -27z"/>
<path d="M2472 3390 c0 -19 2 -27 5 -17 2 9 2 25 0 35 -3 9 -5 1 -5 -18z"/>
<path d="M946 3365 c14 -25 28 -45 30 -45 7 0 -35 78 -45 85 -6 3 2 -15 15
-40z"/>
<path d="M2672 3385 c0 -16 2 -22 5 -12 2 9 2 23 0 30 -3 6 -5 -1 -5 -18z"/>
<path d="M2652 3380 c0 -14 2 -19 5 -12 2 6 2 18 0 25 -3 6 -5 1 -5 -13z"/>
<path d="M1239 3351 c14 -26 31 -36 31 -19 0 7 -9 19 -21 26 -19 12 -19 11
-10 -7z"/>
<path d="M3563 3358 c-15 -20 -25 -38 -20 -38 3 0 12 11 21 25 17 26 16 35 -1
13z"/>
<path d="M900 3350 c0 -20 65 -156 79 -164 6 -4 11 -2 11 3 0 6 -3 11 -7 11
-8 0 -21 25 -63 120 -11 25 -20 38 -20 30z"/>
<path d="M2381 3344 c0 -11 3 -14 6 -6 3 7 2 16 -1 19 -3 4 -6 -2 -5 -13z"/>
<path d="M1308 3343 c7 -3 16 -2 19 1 4 3 -2 6 -13 5 -11 0 -14 -3 -6 -6z"/>
<path d="M2460 3323 c0 -15 -3 -46 -7 -68 -3 -22 -3 -38 0 -35 11 10 24 120
16 126 -5 3 -9 -7 -9 -23z"/>
<path d="M3238 3343 c-16 -2 -28 -9 -28 -14 0 -10 32 -4 60 12 16 9 14 9 -32
2z"/>
<path d="M930 3331 c0 -6 4 -13 10 -16 6 -3 7 1 4 9 -7 18 -14 21 -14 7z"/>
<path d="M2681 3324 c0 -11 3 -14 6 -6 3 7 2 16 -1 19 -3 4 -6 -2 -5 -13z"/>
<path d="M2701 3324 c0 -11 3 -14 6 -6 3 7 2 16 -1 19 -3 4 -6 -2 -5 -13z"/>
<path d="M3539 3288 c-24 -29 -36 -47 -26 -39 20 16 81 91 74 91 -3 0 -25 -24
-48 -52z"/>
<path d="M1297 3323 c-9 -9 -9 -51 1 -56 4 -3 7 10 7 29 0 19 0 34 -1 34 0 0
-4 -3 -7 -7z"/>
<path d="M1967 3306 c-4 -10 -3 -15 3 -11 6 3 10 1 10 -6 0 -7 3 -10 6 -6 3 3
2 13 -4 22 -8 16 -9 16 -15 1z"/>
<path d="M1019 3255 c21 -34 47 -67 57 -75 9 -8 2 6 -17 31 -67 90 -79 103
-40 44z"/>
<path d="M2371 3294 c0 -11 3 -14 6 -6 3 7 2 16 -1 19 -3 4 -6 -2 -5 -13z"/>
<path d="M2900 3300 c-9 -6 -10 -10 -3 -10 6 0 15 5 18 10 8 12 4 12 -15 0z"/>
<path d="M2595 3284 c-45 -23 -162 -141 -205 -207 -38 -57 -100 -212 -99 -245
0 -9 17 30 38 88 47 133 75 177 173 272 59 58 90 81 126 92 33 10 39 15 22 15
-14 1 -38 -6 -55 -15z"/>
<path d="M2680 3290 c0 -5 5 -10 11 -10 5 0 7 5 4 10 -3 6 -8 10 -11 10 -2 0
-4 -4 -4 -10z"/>
<path d="M1190 3286 c0 -2 8 -10 18 -17 15 -13 16 -12 3 4 -13 16 -21 21 -21
13z"/>
<path d="M2402 3260 c0 -19 2 -27 5 -17 2 9 2 25 0 35 -3 9 -5 1 -5 -18z"/>
<path d="M3475 3270 c-3 -5 -1 -10 4 -10 6 0 11 5 11 10 0 6 -2 10 -4 10 -3 0
-8 -4 -11 -10z"/>
<path d="M2696 3254 c-21 -21 -42 -59 -27 -50 12 8 54 66 47 66 -2 0 -12 -7
-20 -16z"/>
<path d="M3449 3233 c-13 -16 -12 -17 4 -4 16 13 21 21 13 21 -2 0 -10 -8 -17
-17z"/>
<path d="M1345 3220 c10 -11 20 -20 23 -20 3 0 -3 9 -13 20 -10 11 -20 20 -23
20 -3 0 3 -9 13 -20z"/>
<path d="M2556 3183 c-9 -28 -33 -89 -52 -135 -91 -214 -164 -398 -179 -453
-18 -62 -53 -116 -42 -65 2 14 12 52 21 85 9 32 16 75 15 95 -1 26 -5 17 -15
-35 -7 -38 -17 -83 -22 -100 -9 -29 -9 -28 -17 23 -12 87 -15 55 -5 -68 4 -63
5 -121 0 -129 -8 -15 15 -61 30 -61 11 0 29 51 28 80 0 37 37 182 83 321 39
118 61 176 113 291 38 88 68 176 64 190 -3 7 -12 -10 -22 -39z m-241 -693 c-8
-23 -15 -62 -15 -86 0 -23 -4 -46 -10 -49 -6 -4 -10 16 -10 54 0 45 6 68 23
94 12 19 23 34 25 32 1 -1 -5 -21 -13 -45z"/>
<path d="M3464 3198 l-29 -33 33 29 c17 17 32 31 32 33 0 8 -8 1 -36 -29z"/>
<path d="M1874 3203 c-4 -10 -12 -32 -20 -50 -19 -41 -18 -164 1 -238 17 -62
70 -170 110 -220 40 -49 39 -20 -1 32 -106 139 -144 336 -85 452 12 22 17 41
11 41 -6 0 -13 -8 -16 -17z"/>
<path d="M3004 3198 l-19 -23 23 19 c21 18 27 26 19 26 -2 0 -12 -10 -23 -22z"/>
<path d="M3116 3176 c-27 -22 -74 -65 -105 -94 -38 -36 -23 -27 44 28 119 97
120 99 114 104 -2 2 -26 -15 -53 -38z"/>
<path d="M3290 3209 c0 -5 5 -7 10 -4 6 3 10 8 10 11 0 2 -4 4 -10 4 -5 0 -10
-5 -10 -11z"/>
<path d="M1252 3190 c0 -14 2 -19 5 -12 2 6 2 18 0 25 -3 6 -5 1 -5 -13z"/>
<path d="M1453 3203 c4 -6 31 -30 60 -54 l52 -42 -40 39 c-48 47 -82 73 -72
57z"/>
<path d="M1580 3206 c0 -2 8 -10 18 -17 15 -13 16 -12 3 4 -13 16 -21 21 -21
13z"/>
<path d="M2441 3194 c0 -11 3 -14 6 -6 3 7 2 16 -1 19 -3 4 -6 -2 -5 -13z"/>
<path d="M1025 3180 c10 -11 20 -20 23 -20 3 0 -3 9 -13 20 -10 11 -20 20 -23
20 -3 0 3 -9 13 -20z"/>
<path d="M2401 3184 c0 -11 3 -14 6 -6 3 7 2 16 -1 19 -3 4 -6 -2 -5 -13z"/>
<path d="M3045 3190 c-3 -5 -1 -10 4 -10 6 0 11 5 11 10 0 6 -2 10 -4 10 -3 0
-8 -4 -11 -10z"/>
<path d="M3231 3141 c-25 -31 -37 -50 -28 -42 23 18 81 91 76 95 -2 1 -24 -22
-48 -53z"/>
<path d="M1380 3185 c0 -14 64 -84 72 -79 4 3 6 10 2 15 -3 5 -10 7 -15 4 -5
-4 -9 -2 -9 3 0 5 -11 21 -25 36 -14 15 -25 24 -25 21z"/>
<path d="M2341 3154 c0 -11 3 -14 6 -6 3 7 2 16 -1 19 -3 4 -6 -2 -5 -13z"/>
<path d="M2959 3153 c-13 -16 -12 -17 4 -4 16 13 21 21 13 21 -2 0 -10 -8 -17
-17z"/>
<path d="M3199 3153 c-13 -16 -12 -17 4 -4 16 13 21 21 13 21 -2 0 -10 -8 -17
-17z"/>
<path d="M1952 3062 c4 -61 18 -132 36 -192 33 -106 82 -233 88 -227 3 2 -9
37 -26 78 -41 103 -82 268 -74 303 6 26 -11 112 -25 128 -4 4 -3 -36 1 -90z"/>
<path d="M1971 3144 c0 -11 3 -14 6 -6 3 7 2 16 -1 19 -3 4 -6 -2 -5 -13z"/>
<path d="M1647 3100 c29 -30 54 -52 56 -50 3 3 -21 27 -52 54 l-56 49 52 -53z"/>
<path d="M3520 3108 c-54 -64 -66 -88 -20 -38 36 39 66 80 58 80 -2 0 -19 -19
-38 -42z"/>
<path d="M1580 3126 c0 -2 8 -10 18 -17 15 -13 16 -12 3 4 -13 16 -21 21 -21
13z"/>
<path d="M2332 3110 c0 -14 2 -19 5 -12 2 6 2 18 0 25 -3 6 -5 1 -5 -13z"/>
<path d="M2975 3119 c-11 -16 -1 -19 13 -3 7 8 8 14 3 14 -5 0 -13 -5 -16 -11z"/>
<path d="M3155 3110 c-10 -11 -22 -17 -28 -13 -6 4 -7 1 -2 -6 4 -8 -5 -26
-26 -47 -18 -19 -31 -34 -28 -34 2 0 31 27 63 60 33 33 55 60 49 60 -5 0 -18
-9 -28 -20z"/>
<path d="M875 3115 c-5 -1 -36 -8 -68 -15 -32 -6 -57 -14 -55 -16 5 -5 160 24
167 31 5 5 -27 5 -44 0z"/>
<path d="M2781 3104 c0 -11 3 -14 6 -6 3 7 2 16 -1 19 -3 4 -6 -2 -5 -13z"/>
<path d="M3362 3090 c0 -19 2 -27 5 -17 2 9 2 25 0 35 -3 9 -5 1 -5 -18z"/>
<path d="M1460 3092 c1 -14 60 -76 60 -62 0 14 14 5 16 -11 1 -5 2 -13 3 -19
0 -5 6 -10 12 -10 8 0 8 5 -1 15 -10 12 -10 15 1 15 8 0 4 8 -11 19 -13 11
-27 18 -31 15 -9 -5 -31 21 -23 28 2 3 -2 8 -11 11 -8 4 -15 3 -15 -1z"/>
<path d="M1635 3036 c33 -32 74 -66 90 -77 37 -25 -24 32 -100 93 -46 37 -45
36 10 -16z"/>
<path d="M2321 3073 c-1 -6 -4 -20 -7 -30 -5 -17 -5 -17 6 0 6 10 9 23 6 30
-3 9 -5 9 -5 0z"/>
<path d="M3138 3007 c-37 -39 -69 -69 -72 -66 -3 3 4 16 16 30 59 67 68 80 20
31 -29 -29 -49 -58 -46 -64 4 -6 -1 -17 -11 -25 -11 -7 -14 -13 -9 -13 12 0
179 168 173 174 -3 3 -35 -27 -71 -67z"/>
<path d="M702 3048 c-56 -21 -55 -21 -46 -5 4 6 3 8 -1 4 -11 -10 -16 -37 -6
-37 3 0 18 8 31 17 14 10 25 16 25 14 0 -2 19 2 43 8 23 7 42 14 42 16 0 8
-43 0 -88 -17z"/>
<path d="M2906 3043 c-6 -14 -5 -15 5 -6 7 7 10 15 7 18 -3 3 -9 -2 -12 -12z"/>
<path d="M3054 3028 l-29 -33 33 29 c17 17 32 31 32 33 0 8 -8 1 -36 -29z"/>
<path d="M1670 3041 c0 -6 4 -13 10 -16 6 -3 7 1 4 9 -7 18 -14 21 -14 7z"/>
<path d="M1770 2993 c30 -35 56 -63 58 -63 8 0 -39 58 -74 90 -26 25 -21 16
16 -27z"/>
<path d="M1871 3034 c0 -11 3 -14 6 -6 3 7 2 16 -1 19 -3 4 -6 -2 -5 -13z"/>
<path d="M2747 3015 c-24 -50 -20 -58 4 -12 11 22 19 41 17 43 -3 2 -12 -12
-21 -31z"/>
<path d="M2295 3000 c-4 -12 -5 -24 -2 -27 3 -2 8 5 12 17 4 12 5 24 2 27 -3
2 -8 -5 -12 -17z"/>
<path d="M1573 2991 c-1 -12 10 -26 25 -36 l27 -16 -24 21 c-13 11 -21 23 -17
27 3 4 16 -3 29 -15 13 -12 27 -22 32 -22 4 0 -9 14 -30 30 -21 17 -38 30 -39
30 -1 0 -2 -9 -3 -19z"/>
<path d="M1750 2975 c19 -19 36 -35 39 -35 3 0 -10 16 -29 35 -19 19 -36 35
-39 35 -3 0 10 -16 29 -35z"/>
<path d="M2871 2937 c-36 -39 -48 -56 -27 -37 35 33 102 110 94 110 -1 0 -32
-33 -67 -73z"/>
<path d="M576 2981 c-3 -4 1 -17 10 -27 14 -18 15 -18 5 3 -8 16 -8 23 2 26 9
4 9 6 0 6 -6 1 -14 -3 -17 -8z"/>
<path d="M1100 2965 c25 -13 50 -24 55 -24 6 0 -10 11 -35 24 -25 13 -49 24
-55 24 -5 0 10 -11 35 -24z"/>
<path d="M3026 2983 c-4 -5 -11 -8 -16 -8 -14 0 -170 -157 -165 -165 3 -5 0
-12 -6 -16 -8 -4 -9 -3 -5 4 4 7 2 12 -3 12 -6 0 -11 -4 -11 -8 0 -5 -23 -21
-51 -36 -28 -16 -49 -30 -46 -32 10 -10 136 59 177 97 l45 41 -41 -31 c-23
-17 -45 -31 -50 -31 -8 0 132 136 168 162 13 9 20 17 17 18 -3 0 -9 -3 -13 -7z"/>
<path d="M3266 2964 c-5 -14 -4 -15 9 -4 17 14 19 20 6 20 -5 0 -12 -7 -15
-16z"/>
<path d="M718 2963 c6 -2 12 -9 12 -14 0 -6 -5 -7 -12 -3 -6 4 -8 3 -5 -3 4
-6 33 -21 64 -33 32 -13 83 -34 113 -48 96 -43 144 -64 170 -73 24 -9 24 -8 6
6 -11 8 -25 15 -32 15 -7 0 -14 4 -16 8 -1 4 -21 15 -43 23 -22 8 -38 18 -35
23 5 8 -33 23 -137 51 -43 12 -63 23 -66 36 -3 10 -11 19 -19 18 -10 0 -10 -2
0 -6z"/>
<path d="M2848 2953 c-8 -10 -19 -25 -23 -33 -8 -13 -7 -13 9 -1 16 14 41 51
33 51 -2 0 -11 -8 -19 -17z"/>
<path d="M547 2946 c-3 -8 -2 -18 3 -21 13 -8 24 15 12 27 -6 6 -11 4 -15 -6z"/>
<path d="M640 2936 c0 -3 9 -10 20 -16 11 -6 20 -8 20 -6 0 3 -9 10 -20 16
-11 6 -20 8 -20 6z"/>
<path d="M2041 2924 c0 -11 3 -14 6 -6 3 7 2 16 -1 19 -3 4 -6 -2 -5 -13z"/>
<path d="M628 2905 c28 -42 71 -81 68 -62 -2 19 -25 47 -36 44 -4 -1 -17 9
-30 23 l-22 25 20 -30z m53 -42 c13 -16 12 -17 -3 -4 -10 7 -18 15 -18 17 0 8
8 3 21 -13z"/>
<path d="M1310 2921 c0 -5 5 -13 10 -16 6 -3 10 -2 10 4 0 5 -4 13 -10 16 -5
3 -10 2 -10 -4z"/>
<path d="M3333 2862 c-17 -37 -30 -69 -28 -71 6 -5 67 120 63 129 -2 5 -17
-22 -35 -58z"/>
<path d="M609 2878 c16 -24 44 -56 62 -73 19 -18 8 0 -26 43 -33 39 -61 72
-62 72 -2 0 9 -19 26 -42z"/>
<path d="M750 2888 c85 -39 287 -135 324 -154 16 -8 31 -13 33 -10 3 2 -31 21
-74 41 -43 20 -98 47 -123 60 -50 26 -211 95 -220 94 -3 0 24 -14 60 -31z"/>
<path d="M1650 2916 c0 -2 8 -10 18 -17 15 -13 16 -12 3 4 -13 16 -21 21 -21
13z"/>
<path d="M1821 2875 c18 -19 34 -35 36 -35 2 0 -8 16 -23 35 -14 19 -30 35
-35 35 -5 0 5 -16 22 -35z"/>
<path d="M2965 2900 c-3 -6 1 -7 9 -4 18 7 21 14 7 14 -6 0 -13 -4 -16 -10z"/>
<path d="M2998 2893 c-8 -10 -19 -25 -23 -33 -8 -13 -7 -13 9 -1 16 14 41 51
33 51 -2 0 -11 -8 -19 -17z"/>
<path d="M3770 2890 l-25 -8 27 -1 c15 -1 30 4 33 9 7 11 0 11 -35 0z"/>
<path d="M1341 2873 c34 -43 149 -152 149 -141 0 6 10 22 22 35 12 13 19 23
15 23 -3 0 -16 -10 -27 -22 l-21 -23 -71 73 c-66 68 -97 93 -67 55z"/>
<path d="M580 2871 c0 -6 4 -13 10 -16 6 -3 7 1 4 9 -7 18 -14 21 -14 7z"/>
<path d="M3700 2865 c14 -17 30 -20 30 -4 0 5 -4 7 -10 4 -5 -3 -10 -1 -10 4
0 6 -5 11 -11 11 -8 0 -8 -5 1 -15z"/>
<path d="M2331 2843 c-18 -45 -31 -97 -22 -87 11 11 43 105 38 111 -3 2 -9 -9
-16 -24z"/>
<path d="M3630 2860 c-13 -8 -12 -10 3 -10 9 0 17 5 17 10 0 12 -1 12 -20 0z"/>
<path d="M790 2846 c0 -3 14 -12 30 -21 17 -9 30 -13 30 -11 0 3 -13 12 -30
21 -16 9 -30 13 -30 11z"/>
<path d="M2769 2833 c-13 -16 -12 -17 4 -4 16 13 21 21 13 21 -2 0 -10 -8 -17
-17z"/>
<path d="M3666 2841 c-4 -5 1 -8 9 -7 21 3 31 16 12 16 -9 0 -18 -4 -21 -9z"/>
<path d="M3819 2848 c-6 -21 -5 -37 2 -32 5 3 6 10 3 16 -5 8 -1 9 10 5 10 -4
15 -3 11 3 -5 9 -24 14 -26 8z"/>
<path d="M600 2834 c0 -34 167 -245 194 -244 6 1 -10 20 -35 43 -46 41 -139
166 -139 186 0 5 -4 13 -10 16 -5 3 -10 3 -10 -1z"/>
<path d="M1065 2830 c3 -4 14 -10 25 -13 11 -3 18 -2 15 3 -3 4 -14 10 -25 13
-11 3 -18 2 -15 -3z"/>
<path d="M1749 2825 c18 -8 36 -15 40 -15 13 1 -45 29 -59 29 -8 0 0 -6 19
-14z"/>
<path d="M2925 2829 c-4 -6 -5 -12 -2 -15 2 -3 7 2 10 11 7 17 1 20 -8 4z"/>
<path d="M3785 2821 c-3 -5 -2 -12 3 -15 5 -3 9 1 9 9 0 17 -3 19 -12 6z"/>
<path d="M1608 2813 c7 -3 16 -2 19 1 4 3 -2 6 -13 5 -11 0 -14 -3 -6 -6z"/>
<path d="M1819 2793 c13 -10 43 -29 65 -41 37 -22 39 -22 16 -2 -14 11 -43 30
-65 41 -32 16 -35 16 -16 2z"/>
<path d="M2281 2794 c0 -11 3 -14 6 -6 3 7 2 16 -1 19 -3 4 -6 -2 -5 -13z"/>
<path d="M2342 2782 c-6 -14 -12 -35 -12 -46 1 -12 8 -2 16 22 17 50 15 64 -4
24z"/>
<path d="M2895 2800 c-3 -5 1 -10 10 -10 9 0 13 5 10 10 -3 6 -8 10 -10 10 -2
0 -7 -4 -10 -10z"/>
<path d="M3660 2800 c-9 -6 -10 -10 -3 -10 6 0 15 5 18 10 8 12 4 12 -15 0z"/>
<path d="M2709 2777 c-50 -38 -81 -69 -76 -74 3 -3 27 15 54 41 46 43 57 60
22 33z"/>
<path d="M3680 2780 c-8 -5 -10 -10 -5 -10 6 0 17 5 25 10 8 5 11 10 5 10 -5
0 -17 -5 -25 -10z"/>
<path d="M806 2750 c21 -16 42 -30 46 -30 4 0 30 -13 58 -30 28 -16 56 -30 63
-30 6 0 -11 12 -38 26 -28 15 -62 35 -77 45 -14 11 -30 19 -36 19 -5 0 -15 7
-22 15 -7 8 -17 15 -23 15 -6 0 7 -13 29 -30z"/>
<path d="M3276 2764 c-5 -14 -4 -15 9 -4 17 14 19 20 6 20 -5 0 -12 -7 -15
-16z"/>
<path d="M3445 2756 c-27 -14 -47 -25 -43 -25 10 -1 98 38 98 44 0 7 0 7 -55
-19z"/>
<path d="M3565 2759 c-22 -10 -29 -16 -15 -13 28 7 80 33 65 33 -5 0 -28 -9
-50 -20z"/>
<path d="M867 2749 c7 -7 15 -10 18 -7 3 3 -2 9 -12 12 -14 6 -15 5 -6 -5z"/>
<path d="M1007 2719 c7 -7 15 -10 18 -7 3 3 -2 9 -12 12 -14 6 -15 5 -6 -5z"/>
<path d="M2667 2705 c-20 -14 -37 -28 -37 -31 0 -2 18 8 40 22 35 23 47 34 37
34 -1 0 -19 -11 -40 -25z"/>
<path d="M3876 2693 c-6 -14 -5 -15 5 -6 7 7 10 15 7 18 -3 3 -9 -2 -12 -12z"/>
<path d="M3101 2657 c-29 -35 -30 -38 -7 -17 24 22 52 60 44 60 -2 0 -18 -19
-37 -43z"/>
<path d="M2453 2608 c-57 -90 -97 -162 -86 -155 9 5 95 144 122 195 23 43 3
21 -36 -40z"/>
<path d="M2271 2634 c0 -11 3 -14 6 -6 3 7 2 16 -1 19 -3 4 -6 -2 -5 -13z"/>
<path d="M3485 2615 c-27 -13 -45 -23 -40 -24 6 0 33 11 60 24 28 13 46 23 40
24 -5 0 -32 -11 -60 -24z"/>
<path d="M806 2622 c-2 -4 4 -8 14 -8 10 0 16 4 14 8 -3 4 -9 8 -14 8 -5 0
-11 -4 -14 -8z"/>
<path d="M2980 2610 c-19 -11 -68 -36 -109 -55 -40 -20 -71 -38 -68 -41 6 -6
170 76 203 101 27 21 15 18 -26 -5z"/>
<path d="M850 2606 c0 -2 7 -7 16 -10 8 -3 12 -2 9 4 -6 10 -25 14 -25 6z"/>
<path d="M1980 2606 c0 -2 7 -7 16 -10 8 -3 12 -2 9 4 -6 10 -25 14 -25 6z"/>
<path d="M3029 2573 l-34 -38 38 34 c20 19 37 36 37 38 0 8 -8 0 -41 -34z"/>
<path d="M2980 2575 c-19 -14 -30 -25 -24 -25 10 0 73 49 63 50 -3 0 -20 -11
-39 -25z"/>
<path d="M3912 2571 c-7 -19 -10 -36 -7 -39 6 -7 26 49 22 62 -2 6 -9 -5 -15
-23z"/>
<path d="M1743 2578 c70 -49 199 -127 188 -114 -8 9 -52 39 -100 68 -86 51
-123 70 -88 46z"/>
<path d="M3400 2580 c-8 -5 -10 -10 -5 -10 6 0 17 5 25 10 8 5 11 10 5 10 -5
0 -17 -5 -25 -10z"/>
<path d="M830 2567 c0 -3 12 -12 26 -22 15 -9 23 -12 20 -6 -7 11 -46 35 -46
28z"/>
<path d="M2560 2540 c-9 -6 -10 -10 -3 -10 6 0 15 5 18 10 8 12 4 12 -15 0z"/>
<path d="M2838 2496 c-94 -49 -133 -75 -93 -60 36 13 170 86 185 100 20 19 18
18 -92 -40z"/>
<path d="M2683 2480 c-35 -16 -63 -31 -63 -34 0 -7 112 42 125 55 13 13 7 11
-62 -21z"/>
<path d="M2635 2429 c-132 -66 -134 -70 -5 -14 69 29 152 77 130 74 -3 0 -59
-27 -125 -60z"/>
<path d="M3493 2449 c26 -22 44 -45 41 -51 -4 -6 -2 -8 4 -4 6 3 22 -8 36 -26
15 -19 26 -27 26 -18 0 17 -125 140 -143 140 -7 0 9 -18 36 -41z"/>
<path d="M3588 2473 c7 -3 16 -2 19 1 4 3 -2 6 -13 5 -11 0 -14 -3 -6 -6z"/>
<path d="M3370 2466 c0 -2 7 -7 16 -10 8 -3 12 -2 9 4 -6 10 -25 14 -25 6z"/>
<path d="M3410 2446 c0 -2 7 -7 16 -10 8 -3 12 -2 9 4 -6 10 -25 14 -25 6z"/>
<path d="M1870 2419 c29 -20 89 -49 101 -49 7 0 -15 13 -47 30 -60 30 -81 38
-54 19z"/>
<path d="M3455 2424 c6 -5 26 -23 45 -39 l35 -30 -25 28 c-14 16 -34 33 -45
39 -11 6 -15 6 -10 2z"/>
<path d="M2685 2410 c3 -5 8 -10 11 -10 2 0 4 5 4 10 0 6 -5 10 -11 10 -5 0
-7 -4 -4 -10z"/>
<path d="M681 2399 c-41 -5 -77 -11 -80 -14 -3 -3 31 -2 74 2 44 4 101 8 128
8 26 0 47 3 47 8 0 9 -71 7 -169 -4z"/>
<path d="M3046 2394 c-5 -14 -4 -15 9 -4 17 14 19 20 6 20 -5 0 -12 -7 -15
-16z"/>
<path d="M2660 2390 c-9 -6 -10 -10 -3 -10 6 0 15 5 18 10 8 12 4 12 -15 0z"/>
<path d="M560 2383 c-40 -7 -44 -19 -5 -15 19 2 35 8 35 13 0 5 -1 8 -2 8 -2
-1 -14 -4 -28 -6z"/>
<path d="M705 2369 c-33 -4 -85 -12 -115 -18 -51 -9 -49 -9 25 -4 107 8 172
17 160 24 -5 3 -37 2 -70 -2z"/>
<path d="M828 2373 c7 -3 16 -2 19 1 4 3 -2 6 -13 5 -11 0 -14 -3 -6 -6z"/>
<path d="M3008 2373 c7 -3 16 -2 19 1 4 3 -2 6 -13 5 -11 0 -14 -3 -6 -6z"/>
<path d="M4135 2360 c10 -11 20 -20 23 -20 3 0 -3 9 -13 20 -10 11 -20 20 -23
20 -3 0 3 -9 13 -20z"/>
<path d="M1990 2364 c0 -5 31 -18 70 -28 22 -6 22 -5 7 4 -21 14 -77 31 -77
24z"/>
<path d="M2560 2360 c-20 -6 -21 -8 -5 -8 11 0 29 3 40 8 25 11 -1 11 -35 0z"/>
<path d="M2945 2360 c-13 -6 -15 -9 -5 -9 8 0 22 4 30 9 18 12 2 12 -25 0z"/>
<path d="M413 2334 c-18 -8 -33 -16 -33 -19 0 -5 70 22 79 30 8 9 -14 4 -46
-11z"/>
<path d="M2996 2341 c-4 -5 3 -7 14 -4 23 6 26 13 6 13 -8 0 -17 -4 -20 -9z"/>
<path d="M3560 2335 c0 -8 4 -15 10 -15 5 0 7 7 4 15 -4 8 -8 15 -10 15 -2 0
-4 -7 -4 -15z"/>
<path d="M3888 2343 c7 -3 16 -2 19 1 4 3 -2 6 -13 5 -11 0 -14 -3 -6 -6z"/>
<path d="M465 2320 c-27 -10 -46 -19 -41 -19 14 -2 90 22 101 31 14 12 -4 9
-60 -12z"/>
<path d="M778 2335 c-3 -3 -47 -9 -99 -14 l-94 -8 70 -1 c61 -1 203 25 149 27
-11 1 -23 -1 -26 -4z"/>
<path d="M3118 2323 c6 -2 18 -2 25 0 6 3 1 5 -13 5 -14 0 -19 -2 -12 -5z"/>
<path d="M3768 2323 c6 -2 18 -2 25 0 6 3 1 5 -13 5 -14 0 -19 -2 -12 -5z"/>
<path d="M3278 2313 c7 -3 16 -2 19 1 4 3 -2 6 -13 5 -11 0 -14 -3 -6 -6z"/>
<path d="M3898 2313 c17 -2 47 -2 65 0 17 2 3 4 -33 4 -36 0 -50 -2 -32 -4z"/>
<path d="M523 2303 c9 -2 23 -2 30 0 6 3 -1 5 -18 5 -16 0 -22 -2 -12 -5z"/>
<path d="M2705 2280 c-83 -5 -86 -5 -35 -10 58 -6 152 2 135 10 -5 3 -50 3
-100 0z"/>
<path d="M2833 2283 c9 -2 23 -2 30 0 6 3 -1 5 -18 5 -16 0 -22 -2 -12 -5z"/>
<path d="M3318 2283 c7 -3 16 -2 19 1 4 3 -2 6 -13 5 -11 0 -14 -3 -6 -6z"/>
<path d="M2968 2273 c6 -2 18 -2 25 0 6 3 1 5 -13 5 -14 0 -19 -2 -12 -5z"/>
<path d="M2342 2228 c5 -15 28 -23 28 -10 0 5 -7 13 -16 16 -10 4 -14 1 -12
-6z"/>
<path d="M2998 2233 c17 -2 47 -2 65 0 17 2 3 4 -33 4 -36 0 -50 -2 -32 -4z"/>
<path d="M3208 2233 c7 -3 16 -2 19 1 4 3 -2 6 -13 5 -11 0 -14 -3 -6 -6z"/>
<path d="M3168 2213 c7 -3 16 -2 19 1 4 3 -2 6 -13 5 -11 0 -14 -3 -6 -6z"/>
<path d="M3605 2205 c-25 -12 -26 -14 -5 -9 14 4 29 10 35 15 12 12 5 11 -30
-6z"/>
<path d="M350 2192 c0 -36 79 -83 182 -107 69 -16 273 -21 249 -6 -8 5 -55 10
-105 10 -148 2 -306 54 -306 102 0 10 -4 19 -10 19 -5 0 -10 -8 -10 -18z"/>
<path d="M2980 2201 c0 -10 19 -25 25 -20 1 2 -3 10 -11 17 -8 7 -14 8 -14 3z"/>
<path d="M3258 2203 c7 -3 16 -2 19 1 4 3 -2 6 -13 5 -11 0 -14 -3 -6 -6z"/>
<path d="M4000 2200 c-34 -7 -34 -7 -5 -8 17 0 39 3 50 8 24 10 4 10 -45 0z"/>
<path d="M3106 2186 c53 -14 243 -32 234 -23 -5 6 -129 22 -230 31 l-55 4 51
-12z"/>
<path d="M3348 2193 c12 -2 32 -2 45 0 12 2 2 4 -23 4 -25 0 -35 -2 -22 -4z"/>
<path d="M400 2181 c14 -4 75 -10 135 -13 64 -4 89 -3 60 2 -79 11 -223 20
-195 11z"/>
<path d="M607 2183 c18 -2 50 -2 70 0 21 2 7 4 -32 4 -38 0 -55 -2 -38 -4z"/>
<path d="M2410 2182 c0 -4 16 -12 35 -18 43 -13 45 -10 5 11 -33 17 -40 18
-40 7z"/>
<path d="M3795 2174 l-90 -12 97 5 c53 3 112 9 130 13 l33 8 -40 0 c-22 -1
-80 -7 -130 -14z"/>
<path d="M810 2164 c0 -5 -28 -8 -62 -8 l-63 2 60 -7 c57 -6 87 1 72 16 -4 3
-7 2 -7 -3z"/>
<path d="M4020 2149 c-30 -11 -59 -21 -65 -22 -5 -2 -19 -8 -30 -14 -11 -5
-55 -16 -98 -23 -56 -9 -74 -16 -63 -22 20 -11 122 7 181 32 25 11 46 19 48
18 4 -2 87 42 87 47 0 6 3 7 -60 -16z"/>
<path d="M538 2143 c6 -2 18 -2 25 0 6 3 1 5 -13 5 -14 0 -19 -2 -12 -5z"/>
<path d="M3875 2140 c-16 -7 -17 -9 -3 -9 9 -1 20 4 23 9 7 11 7 11 -20 0z"/>
<path d="M733 2133 c9 -2 25 -2 35 0 9 3 1 5 -18 5 -19 0 -27 -2 -17 -5z"/>
<path d="M3268 2133 c7 -3 16 -2 19 1 4 3 -2 6 -13 5 -11 0 -14 -3 -6 -6z"/>
<path d="M2540 2116 c14 -8 27 -12 29 -10 6 6 -1 11 -29 18 l-25 7 25 -15z"/>
<path d="M3519 2109 c-12 -12 -40 -32 -63 -45 -22 -13 -36 -24 -30 -24 14 0
96 53 113 73 19 24 5 21 -20 -4z"/>
<path d="M3053 2081 c33 -40 82 -153 70 -164 -2 -3 -17 2 -33 10 -17 8 -34 12
-39 9 -5 -3 -34 6 -66 20 -31 14 -58 24 -61 21 -2 -2 26 -18 63 -34 132 -59
160 -54 137 23 -17 56 -44 101 -80 134 -20 18 -18 13 9 -19z"/>
<path d="M738 2103 c6 -2 18 -2 25 0 6 3 1 5 -13 5 -14 0 -19 -2 -12 -5z"/>
<path d="M2780 2040 c8 -5 20 -10 25 -10 6 0 3 5 -5 10 -8 5 -19 10 -25 10 -5
0 -3 -5 5 -10z"/>
<path d="M2827 2019 c7 -7 15 -10 18 -7 3 3 -2 9 -12 12 -14 6 -15 5 -6 -5z"/>
<path d="M880 1936 c-52 -35 -104 -74 -115 -87 l-20 -24 25 21 c23 20 168 116
215 142 14 8 15 11 5 11 -8 0 -58 -28 -110 -63z"/>
<path d="M1804 1908 l-29 -33 33 29 c30 28 37 36 29 36 -2 0 -16 -15 -33 -32z"/>
<path d="M1045 1920 c2 -3 0 -12 -6 -20 -5 -10 -9 -10 -9 -3 0 12 -19 11 -63
-3 -12 -4 -62 -34 -110 -67 -60 -41 -85 -63 -78 -70 7 -7 0 -18 -21 -34 -39
-28 -63 -30 -28 -2 l25 20 -24 -12 c-27 -13 -194 -179 -188 -186 3 -2 27 17
53 43 27 26 59 53 71 61 13 9 20 20 16 26 -3 6 -1 7 6 3 6 -4 28 5 49 22 20
16 79 53 130 82 51 29 90 55 87 58 -2 3 -39 -16 -81 -42 -105 -65 -109 -56 -9
22 6 5 15 10 20 11 6 2 30 17 54 34 36 24 47 28 62 19 23 -15 41 -8 55 22 8
17 8 23 -2 23 -7 0 -11 -3 -9 -7z"/>
<path d="M1736 1915 c-11 -8 -17 -17 -14 -20 2 -3 13 4 23 15 21 23 18 25 -9
5z"/>
<path d="M1070 1905 c-11 -13 -10 -14 4 -9 9 3 16 10 16 15 0 13 -6 11 -20 -6z"/>
<path d="M3460 1906 c0 -2 11 -6 25 -8 13 -3 22 -1 19 3 -5 9 -44 13 -44 5z"/>
<path d="M3647 1899 c7 -7 15 -10 18 -7 3 3 -2 9 -12 12 -14 6 -15 5 -6 -5z"/>
<path d="M850 1870 l-35 -30 40 25 c47 31 51 35 39 35 -5 0 -25 -14 -44 -30z"/>
<path d="M3615 1883 c17 -8 39 -23 50 -32 19 -15 19 -15 6 2 -15 18 -63 47
-78 47 -4 -1 6 -8 22 -17z"/>
<path d="M3110 1879 c0 -5 5 -7 10 -4 6 3 10 8 10 11 0 2 -4 4 -10 4 -5 0 -10
-5 -10 -11z"/>
<path d="M3720 1886 c0 -2 8 -10 18 -17 15 -13 16 -12 3 4 -13 16 -21 21 -21
13z"/>
<path d="M1734 1857 c-42 -30 -180 -157 -171 -157 4 0 38 28 76 63 37 34 83
74 102 89 41 32 36 36 -7 5z"/>
<path d="M1133 1830 c-40 -15 -101 -44 -135 -62 -35 -19 -79 -41 -98 -48 -58
-23 -131 -71 -123 -82 3 -7 1 -8 -5 -4 -6 4 -29 -5 -51 -19 -23 -14 -44 -25
-48 -25 -5 0 -19 -9 -33 -20 -18 -15 -20 -18 -6 -13 12 4 17 3 13 -4 -9 -14
-47 -24 -47 -12 0 4 -7 6 -16 2 -15 -5 -15 -7 0 -15 18 -10 90 17 82 31 -4 5
-1 13 5 17 8 4 9 3 5 -4 -10 -17 2 -15 32 6 15 10 62 38 105 61 46 25 75 47
71 53 -4 7 -2 8 5 4 7 -5 27 4 46 19 20 14 40 23 45 20 6 -3 10 -1 10 6 0 7 3
9 7 6 3 -4 12 -2 18 3 7 5 56 32 111 60 111 55 114 62 7 20z m-264 -143 c-16
-12 -79 -45 -79 -42 0 7 63 45 74 45 5 0 7 -1 5 -3z"/>
<path d="M3458 1853 c7 -3 16 -2 19 1 4 3 -2 6 -13 5 -11 0 -14 -3 -6 -6z"/>
<path d="M1615 1830 c-12 -4 -27 -16 -35 -26 -14 -16 -13 -16 5 -6 24 13 62
41 55 41 -3 0 -14 -4 -25 -9z"/>
<path d="M3690 1837 c0 -3 17 -17 37 -33 20 -15 33 -23 29 -16 -8 13 -66 56
-66 49z"/>
<path d="M1014 1815 c-4 -8 -11 -12 -17 -8 -6 3 -7 1 -3 -5 5 -9 13 -9 27 -2
11 6 17 15 14 21 -9 13 -15 11 -21 -6z"/>
<path d="M3530 1821 c0 -5 7 -12 16 -15 14 -5 15 -4 4 9 -14 17 -20 19 -20 6z"/>
<path d="M3812 1764 c37 -38 79 -82 94 -99 14 -16 22 -23 18 -14 -15 28 -128
149 -154 166 -14 9 5 -15 42 -53z"/>
<path d="M965 1790 c-4 -6 -29 -22 -56 -35 -27 -14 -49 -27 -49 -30 0 -10 110
49 114 62 6 15 0 17 -9 3z"/>
<path d="M3620 1762 c19 -17 40 -31 45 -31 11 -1 -29 34 -60 50 -11 6 -4 -3
15 -19z"/>
<path d="M1253 1768 c-15 -20 -25 -38 -20 -38 3 0 12 11 21 25 17 26 16 35 -1
13z"/>
<path d="M1649 1753 l-24 -28 28 24 c25 23 32 31 24 31 -2 0 -14 -12 -28 -27z"/>
<path d="M1449 1701 c-40 -39 -68 -71 -62 -71 5 0 30 22 54 48 24 26 55 56 68
65 14 9 22 19 18 23 -3 3 -38 -26 -78 -65z"/>
<path d="M3470 1750 c-9 -6 2 -18 42 -43 64 -41 90 -48 93 -26 3 20 -115 81
-135 69z m107 -62 c-6 -4 -14 -3 -15 3 -2 5 -21 19 -43 29 -21 11 -39 23 -39
25 0 3 25 -7 55 -22 36 -18 50 -30 42 -35z"/>
<path d="M3693 1734 c9 -12 15 -23 12 -26 -3 -2 2 -5 10 -5 22 0 18 9 -13 31
-27 20 -27 20 -9 0z"/>
<path d="M1431 1647 c-55 -55 -105 -116 -123 -150 -17 -31 -34 -55 -37 -53 -4
3 -17 -12 -30 -32 l-24 -37 40 40 c22 22 53 63 68 90 16 28 69 92 119 143 49
50 88 92 85 92 -2 0 -46 -42 -98 -93z"/>
<path d="M1595 1660 c-16 -16 -27 -31 -24 -33 2 -2 17 11 32 30 36 41 31 43
-8 3z"/>
<path d="M754 1664 c-18 -14 -18 -15 4 -4 12 6 22 13 22 15 0 8 -5 6 -26 -11z"/>
<path d="M1509 1652 c-23 -26 -23 -26 -1 -8 29 25 29 10 0 -23 -13 -14 -6 -10
15 8 43 40 41 37 23 44 -8 3 -24 -6 -37 -21z"/>
<path d="M3610 1660 c0 -9 14 -14 33 -11 4 0 7 -4 7 -10 0 -5 5 -7 10 -4 6 3
13 -1 16 -10 4 -9 24 -25 45 -36 44 -22 54 -18 12 5 -16 8 -22 15 -14 16 15 0
81 -38 81 -47 0 -3 -8 -2 -17 1 -11 4 -8 -2 7 -13 18 -14 27 -16 32 -8 7 11
12 3 9 -15 0 -4 18 -17 40 -29 23 -11 38 -16 35 -11 -3 6 -1 12 6 14 7 3 5 7
-6 11 -11 5 -15 3 -10 -5 5 -8 2 -9 -10 -5 -10 4 -20 7 -22 7 -2 0 -4 6 -4 14
0 8 -32 35 -72 60 -56 36 -74 43 -85 34 -8 -6 -13 -7 -12 -2 3 18 -1 37 -7 31
-4 -3 -19 0 -35 8 -33 18 -39 18 -39 5z"/>
<path d="M3790 1666 c0 -2 8 -10 18 -17 15 -13 16 -12 3 4 -13 16 -21 21 -21
13z"/>
<path d="M3830 1627 c0 -13 147 -159 152 -151 2 5 -31 42 -74 83 -43 41 -78
72 -78 68z"/>
<path d="M1257 1613 c-10 -9 -9 -23 1 -23 5 0 9 7 9 15 0 17 -1 18 -10 8z"/>
<path d="M1359 1603 c-13 -16 -12 -17 4 -4 9 7 17 15 17 17 0 8 -8 3 -21 -13z"/>
<path d="M1400 1526 c-100 -121 -182 -226 -177 -226 4 0 93 103 216 252 8 9
19 14 25 11 6 -3 8 -3 4 2 -4 4 -3 16 3 27 22 41 2 22 -71 -66z"/>
<path d="M1230 1540 c0 -11 2 -20 4 -20 2 0 6 9 9 20 3 11 1 20 -4 20 -5 0 -9
-9 -9 -20z"/>
<path d="M1161 1524 c0 -11 3 -14 6 -6 3 7 2 16 -1 19 -3 4 -6 -2 -5 -13z"/>
<path d="M540 1522 c0 -5 7 -13 16 -16 10 -4 14 -1 12 6 -5 15 -28 23 -28 10z"/>
<path d="M1414 1498 l-29 -33 33 29 c30 28 37 36 29 36 -2 0 -16 -15 -33 -32z"/>
<path d="M1216 1493 c-6 -14 -5 -15 5 -6 7 7 10 15 7 18 -3 3 -9 -2 -12 -12z"/>
<path d="M1202 1444 c-1 -13 0 -24 2 -24 7 0 14 40 7 44 -4 3 -8 -6 -9 -20z"/>
<path d="M1221 1354 c-19 -25 -27 -44 -17 -44 2 0 13 16 25 35 24 42 21 45 -8
9z"/>
<path d="M1099 1330 c-10 -6 -33 -11 -53 -12 -20 -2 -36 -7 -36 -11 0 -5 -4
-5 -10 -2 -5 3 -10 -1 -10 -9 0 -12 5 -14 25 -6 14 5 29 9 33 8 10 -2 82 30
82 36 0 9 -13 7 -31 -4z"/>
<path d="M3570 1326 c0 -2 7 -9 15 -16 13 -11 14 -10 9 4 -5 14 -24 23 -24 12z"/>
<path d="M1791 1274 c0 -11 3 -14 6 -6 3 7 2 16 -1 19 -3 4 -6 -2 -5 -13z"/>
<path d="M3374 1278 c32 -22 82 -71 142 -138 32 -36 67 -71 78 -79 23 -15 19
-10 -55 69 -18 19 -57 61 -86 92 -29 32 -53 55 -53 53 0 -3 -10 -1 -22 5 -20
9 -21 9 -4 -2z"/>
<path d="M3430 1286 c0 -2 7 -7 16 -10 8 -3 12 -2 9 4 -6 10 -25 14 -25 6z"/>
<path d="M1725 1269 c-4 -6 -5 -12 -2 -15 2 -3 7 2 10 11 7 17 1 20 -8 4z"/>
<path d="M1836 1265 c-9 -26 -7 -32 5 -12 6 10 9 21 6 23 -2 3 -7 -2 -11 -11z"/>
<path d="M1870 1261 c-12 -24 -13 -34 -1 -27 9 6 22 46 15 46 -2 0 -8 -9 -14
-19z"/>
<path d="M1014 1248 l-19 -23 23 19 c21 18 27 26 19 26 -2 0 -12 -10 -23 -22z"/>
<path d="M1014 1203 c-59 -71 -79 -99 -40 -59 83 89 105 116 97 116 -5 0 -31
-26 -57 -57z"/>
<path d="M3490 1226 c0 -2 8 -10 18 -17 15 -13 16 -12 3 4 -13 16 -21 21 -21
13z"/>
<path d="M3546 1217 c3 -10 9 -15 12 -12 3 3 0 11 -7 18 -10 9 -11 8 -5 -6z"/>
<path d="M1182 1190 c-56 -40 -54 -47 3 -9 40 27 53 39 42 39 -2 0 -23 -14
-45 -30z"/>
<path d="M1847 1213 c-4 -3 -7 -11 -7 -17 0 -6 5 -5 12 2 6 6 9 14 7 17 -3 3
-9 2 -12 -2z"/>
<path d="M1234 1184 c-18 -14 -18 -15 4 -4 12 6 22 13 22 15 0 8 -5 6 -26 -11z"/>
<path d="M944 1163 c-35 -48 -38 -59 -6 -23 28 31 38 50 29 50 -2 0 -12 -12
-23 -27z"/>
<path d="M3535 1180 c13 -23 97 -130 103 -130 5 0 4 1 -53 75 -46 60 -61 76
-50 55z"/>
<path d="M1244 1163 c-36 -34 -48 -58 -14 -28 19 16 39 33 45 37 5 5 5 8 -1 8
-6 0 -20 -8 -30 -17z"/>
<path d="M1165 1148 c-61 -43 -177 -165 -212 -221 -35 -57 -40 -82 -10 -53 8
8 18 12 21 8 4 -3 4 0 1 9 -13 34 94 165 205 251 42 32 38 37 -5 6z"/>
<path d="M1307 1146 c-4 -10 -1 -13 9 -9 15 6 19 23 5 23 -5 0 -11 -7 -14 -14z"/>
<path d="M1550 1139 c0 -5 5 -7 10 -4 6 3 10 8 10 11 0 2 -4 4 -10 4 -5 0 -10
-5 -10 -11z"/>
<path d="M1340 1129 c0 -5 5 -7 10 -4 6 3 10 8 10 11 0 2 -4 4 -10 4 -5 0 -10
-5 -10 -11z"/>
<path d="M3614 1129 c-3 -6 1 -18 10 -27 10 -11 16 -12 16 -4 0 7 -5 12 -11
12 -6 0 -9 7 -5 15 6 17 0 20 -10 4z"/>
<path d="M1239 1113 c-13 -16 -12 -17 4 -4 9 7 17 15 17 17 0 8 -8 3 -21 -13z"/>
<path d="M1219 1058 c-35 -33 -55 -56 -44 -50 22 12 122 112 113 112 -3 0 -34
-28 -69 -62z"/>
<path d="M1360 1114 c0 -7 27 -34 34 -34 4 0 1 9 -6 20 -12 19 -28 27 -28 14z"/>
<path d="M1304 1096 c-10 -8 -16 -17 -13 -20 3 -3 14 3 24 14 21 23 17 26 -11
6z"/>
<path d="M1712 1038 c-16 -54 -21 -78 -13 -78 7 0 33 101 27 107 -2 3 -9 -11
-14 -29z"/>
<path d="M1893 1058 c-22 -36 -71 -148 -65 -148 8 0 40 60 68 128 14 32 12 44
-3 20z"/>
<path d="M1145 1024 c-30 -27 -32 -31 -9 -16 28 19 62 53 53 52 -2 -1 -22 -17
-44 -36z"/>
<path d="M1095 1029 c-4 -6 -5 -12 -2 -15 2 -3 7 2 10 11 7 17 1 20 -8 4z"/>
<path d="M1601 1024 c0 -11 3 -14 6 -6 3 7 2 16 -1 19 -3 4 -6 -2 -5 -13z"/>
<path d="M1672 1020 c0 -14 2 -19 5 -12 2 6 2 18 0 25 -3 6 -5 1 -5 -13z"/>
<path d="M1959 983 c-11 -25 -18 -50 -17 -54 2 -5 13 16 25 46 26 67 20 73 -8
8z"/>
<path d="M1265 1010 c-3 -6 1 -7 9 -4 18 7 21 14 7 14 -6 0 -13 -4 -16 -10z"/>
<path d="M1631 1004 c0 -11 3 -14 6 -6 3 7 2 16 -1 19 -3 4 -6 -2 -5 -13z"/>
<path d="M1592 970 c0 -19 2 -27 5 -17 2 9 2 25 0 35 -3 9 -5 1 -5 -18z"/>
<path d="M1773 983 c-3 -10 -8 -21 -10 -25 -2 -5 0 -8 5 -8 5 0 12 11 14 25 6
29 0 33 -9 8z"/>
<path d="M1093 983 c4 -3 -1 -12 -11 -20 -15 -13 -15 -13 6 -3 19 9 23 30 5
30 -4 0 -3 -3 0 -7z"/>
<path d="M1662 970 c0 -14 2 -19 5 -12 2 6 2 18 0 25 -3 6 -5 1 -5 -13z"/>
<path d="M1178 954 c-39 -21 -35 -28 5 -8 37 19 44 24 31 24 -5 -1 -21 -8 -36
-16z"/>
<path d="M1891 943 c-7 -16 -43 -73 -79 -128 -86 -129 -84 -125 -78 -125 16 0
184 266 174 276 -3 2 -10 -8 -17 -23z"/>
<path d="M1651 933 c-1 -6 -4 -20 -7 -30 -5 -17 -5 -17 6 0 6 10 9 23 6 30 -3
9 -5 9 -5 0z"/>
<path d="M1010 910 c-8 -5 -10 -10 -5 -10 6 0 17 5 25 10 8 5 11 10 5 10 -5 0
-17 -5 -25 -10z"/>
<path d="M1807 878 c-9 -31 -2 -33 11 -3 6 14 8 25 3 25 -5 0 -11 -10 -14 -22z"/>
<path d="M1969 853 c-13 -16 -12 -17 4 -4 9 7 17 15 17 17 0 8 -8 3 -21 -13z"/>
<path d="M1931 807 c-13 -21 -12 -21 5 -5 10 10 16 20 13 22 -3 3 -11 -5 -18
-17z"/>
<path d="M1581 804 c0 -11 3 -14 6 -6 3 7 2 16 -1 19 -3 4 -6 -2 -5 -13z"/>
<path d="M2194 786 c-9 -20 -9 -23 2 -19 8 3 14 14 14 24 0 25 -3 24 -16 -5z"/>
<path d="M1751 794 c-1 -6 -26 -47 -57 -90 -41 -57 -48 -71 -25 -50 17 17 31
35 31 42 0 7 4 14 8 16 16 6 53 69 49 81 -3 7 -6 8 -6 1z"/>
<path d="M1591 734 c0 -11 3 -14 6 -6 3 7 2 16 -1 19 -3 4 -6 -2 -5 -13z"/>
<path d="M2291 733 c7 -10 15 -20 16 -22 2 -2 3 5 3 17 0 14 -6 22 -16 22 -14
0 -15 -3 -3 -17z"/>
<path d="M2358 712 c-4 -12 -2 -25 4 -28 16 -10 22 4 11 28 l-10 22 -5 -22z"/>
<path d="M2397 699 c-5 -18 -1 -29 18 -44 32 -26 31 -33 -4 -103 -35 -68 -96
-142 -118 -142 -12 0 -13 3 -4 13 13 17 43 87 36 87 -2 0 -12 -14 -20 -30 -9
-17 -20 -28 -26 -24 -7 4 -9 -6 -7 -27 4 -44 19 -46 63 -7 34 29 135 170 135
186 0 4 -5 0 -11 -8 -8 -11 -9 -6 -4 20 4 19 9 46 11 60 4 23 3 22 -7 -3 l-11
-29 -23 37 c-21 36 -22 37 -28 14z"/>
<path d="M2353 635 c-3 -9 -3 -18 -1 -21 3 -3 8 4 11 16 6 23 -1 27 -10 5z"/>
<path d="M2106 610 c4 -14 13 -38 20 -55 11 -24 13 -25 8 -5 -4 14 -13 39 -20
55 -11 24 -13 25 -8 5z"/>
<path d="M2341 573 c-1 -6 -4 -20 -7 -30 -5 -17 -5 -17 6 0 6 10 9 23 6 30 -3
9 -5 9 -5 0z"/>
<path d="M2291 504 c0 -11 3 -14 6 -6 3 7 2 16 -1 19 -3 4 -6 -2 -5 -13z"/>
</g>
</svg>
